<?xml version="1.0" encoding="utf-8" ?>
<svg baseProfile="full" height="1024px" version="1.1" width="1024px" xmlns="http://www.w3.org/2000/svg" xmlns:ev="http://www.w3.org/2001/xml-events" xmlns:xlink="http://www.w3.org/1999/xlink"><defs /><path d="M 320,192 L 319,193 L 316,193 L 315,194 L 313,194 L 312,195 L 310,195 L 309,196 L 308,196 L 307,197 L 306,197 L 304,199 L 303,199 L 302,200 L 301,200 L 297,204 L 296,204 L 291,209 L 291,210 L 288,213 L 288,214 L 286,216 L 286,217 L 285,218 L 285,219 L 282,222 L 281,222 L 280,223 L 279,223 L 278,224 L 277,224 L 275,226 L 274,226 L 272,228 L 271,228 L 268,231 L 267,231 L 262,236 L 261,236 L 253,244 L 253,245 L 248,250 L 248,251 L 246,253 L 246,254 L 244,256 L 244,257 L 243,258 L 243,259 L 242,260 L 242,261 L 240,263 L 240,265 L 239,266 L 239,267 L 238,268 L 238,269 L 237,270 L 237,272 L 236,273 L 236,275 L 235,276 L 235,280 L 234,281 L 234,284 L 233,285 L 233,293 L 232,294 L 232,310 L 233,311 L 233,326 L 234,327 L 234,337 L 235,338 L 235,345 L 236,346 L 236,351 L 237,352 L 237,358 L 238,359 L 238,363 L 239,364 L 239,368 L 240,369 L 240,373 L 241,374 L 241,377 L 242,378 L 242,382 L 243,383 L 243,386 L 244,387 L 244,390 L 245,391 L 245,394 L 246,395 L 246,398 L 247,399 L 247,402 L 248,403 L 248,405 L 249,406 L 249,409 L 250,410 L 250,413 L 251,414 L 251,417 L 252,418 L 252,420 L 253,421 L 253,424 L 254,425 L 254,428 L 255,429 L 255,437 L 254,438 L 254,439 L 253,440 L 253,446 L 254,447 L 254,449 L 255,450 L 255,452 L 256,453 L 256,455 L 257,456 L 257,458 L 258,459 L 258,461 L 259,462 L 259,464 L 260,465 L 260,466 L 261,467 L 261,469 L 262,470 L 262,471 L 263,472 L 263,474 L 264,475 L 264,476 L 265,477 L 265,479 L 266,480 L 266,481 L 267,482 L 267,483 L 268,484 L 268,485 L 269,486 L 269,487 L 270,488 L 270,490 L 272,492 L 272,493 L 273,494 L 273,495 L 274,496 L 274,497 L 275,498 L 275,499 L 276,500 L 276,501 L 277,502 L 277,503 L 278,504 L 278,505 L 280,507 L 280,508 L 281,509 L 281,510 L 283,512 L 283,513 L 284,514 L 284,515 L 286,517 L 286,518 L 288,520 L 288,521 L 290,523 L 290,524 L 293,527 L 293,528 L 296,531 L 296,532 L 301,537 L 301,538 L 318,555 L 319,555 L 324,560 L 325,560 L 328,563 L 329,563 L 332,566 L 333,566 L 335,568 L 336,568 L 338,570 L 339,570 L 340,571 L 341,571 L 343,573 L 344,573 L 345,574 L 346,574 L 347,575 L 348,575 L 349,576 L 350,576 L 351,577 L 352,577 L 353,578 L 354,578 L 355,579 L 356,579 L 357,580 L 358,580 L 359,581 L 361,581 L 362,582 L 363,582 L 364,583 L 366,583 L 367,584 L 369,584 L 370,585 L 373,585 L 374,586 L 376,586 L 377,587 L 381,587 L 382,588 L 387,588 L 388,589 L 389,589 L 390,590 L 390,671 L 391,672 L 391,679 L 392,680 L 392,686 L 393,687 L 393,692 L 394,693 L 394,697 L 395,698 L 395,701 L 396,702 L 396,705 L 397,706 L 397,709 L 398,710 L 398,712 L 399,713 L 399,715 L 400,716 L 400,718 L 401,719 L 401,721 L 402,722 L 402,723 L 403,724 L 403,726 L 404,727 L 404,728 L 405,729 L 405,730 L 406,731 L 406,732 L 407,733 L 407,734 L 408,735 L 408,736 L 409,737 L 409,738 L 410,739 L 410,740 L 411,741 L 411,742 L 412,743 L 412,744 L 413,745 L 413,746 L 415,748 L 415,749 L 417,751 L 417,752 L 418,753 L 418,754 L 420,756 L 420,757 L 423,760 L 423,761 L 426,764 L 426,765 L 429,768 L 429,769 L 436,776 L 436,777 L 444,785 L 445,785 L 452,792 L 453,792 L 456,795 L 457,795 L 460,798 L 461,798 L 463,800 L 464,800 L 466,802 L 467,802 L 469,804 L 470,804 L 472,806 L 473,806 L 474,807 L 475,807 L 476,808 L 477,808 L 478,809 L 479,809 L 481,811 L 483,811 L 484,812 L 485,812 L 486,813 L 487,813 L 488,814 L 489,814 L 490,815 L 492,815 L 493,816 L 494,816 L 495,817 L 496,817 L 497,818 L 499,818 L 500,819 L 502,819 L 503,820 L 505,820 L 506,821 L 508,821 L 509,822 L 511,822 L 512,823 L 514,823 L 515,824 L 518,824 L 519,825 L 522,825 L 523,826 L 528,826 L 529,827 L 535,827 L 536,828 L 575,828 L 576,827 L 582,827 L 583,826 L 588,826 L 589,825 L 592,825 L 593,824 L 596,824 L 597,823 L 600,823 L 601,822 L 603,822 L 604,821 L 606,821 L 607,820 L 609,820 L 610,819 L 612,819 L 613,818 L 615,818 L 616,817 L 617,817 L 618,816 L 619,816 L 620,815 L 622,815 L 623,814 L 624,814 L 625,813 L 626,813 L 627,812 L 628,812 L 629,811 L 630,811 L 631,810 L 632,810 L 633,809 L 634,809 L 635,808 L 636,808 L 637,807 L 638,807 L 639,806 L 640,806 L 642,804 L 643,804 L 645,802 L 646,802 L 648,800 L 649,800 L 651,798 L 652,798 L 655,795 L 656,795 L 660,791 L 661,791 L 668,784 L 669,784 L 674,779 L 674,778 L 683,769 L 683,768 L 687,764 L 687,763 L 690,760 L 690,759 L 692,757 L 692,756 L 694,754 L 694,753 L 696,751 L 696,750 L 698,748 L 698,747 L 699,746 L 699,745 L 700,744 L 700,743 L 702,741 L 702,740 L 703,739 L 703,738 L 704,737 L 704,736 L 705,735 L 705,734 L 706,733 L 706,732 L 707,731 L 707,729 L 708,728 L 708,727 L 709,726 L 709,725 L 710,724 L 710,722 L 711,721 L 711,720 L 712,719 L 712,717 L 713,716 L 713,714 L 714,713 L 714,711 L 715,710 L 715,707 L 716,706 L 716,704 L 717,703 L 717,700 L 718,699 L 718,696 L 719,695 L 719,690 L 720,689 L 720,684 L 721,683 L 721,675 L 722,674 L 722,602 L 723,601 L 724,601 L 725,600 L 728,600 L 729,599 L 731,599 L 732,598 L 735,598 L 736,597 L 737,597 L 738,596 L 740,596 L 741,595 L 742,595 L 743,594 L 744,594 L 745,593 L 746,593 L 747,592 L 748,592 L 750,590 L 751,590 L 752,589 L 753,589 L 755,587 L 756,587 L 759,584 L 760,584 L 765,579 L 766,579 L 769,576 L 769,575 L 776,568 L 776,567 L 779,564 L 779,563 L 781,561 L 781,560 L 782,559 L 782,558 L 784,556 L 784,555 L 785,554 L 785,553 L 786,552 L 786,551 L 787,550 L 787,549 L 788,548 L 788,547 L 789,546 L 789,544 L 790,543 L 790,541 L 791,540 L 791,539 L 792,538 L 792,535 L 793,534 L 793,531 L 794,530 L 794,527 L 795,526 L 795,519 L 796,518 L 796,499 L 795,498 L 795,493 L 794,492 L 794,488 L 793,487 L 793,484 L 792,483 L 792,481 L 791,480 L 791,478 L 790,477 L 790,475 L 789,474 L 789,473 L 788,472 L 788,471 L 787,470 L 787,469 L 786,468 L 786,467 L 785,466 L 785,465 L 784,464 L 784,463 L 783,462 L 783,461 L 781,459 L 781,458 L 779,456 L 779,455 L 777,453 L 777,452 L 772,447 L 772,446 L 765,439 L 764,439 L 760,435 L 759,435 L 756,432 L 755,432 L 753,430 L 752,430 L 750,428 L 749,428 L 748,427 L 747,427 L 746,426 L 745,426 L 744,425 L 743,425 L 742,424 L 741,424 L 740,423 L 739,423 L 738,422 L 736,422 L 735,421 L 733,421 L 732,420 L 730,420 L 729,419 L 727,419 L 726,418 L 723,418 L 722,417 L 718,417 L 717,416 L 711,416 L 710,415 L 695,415 L 694,416 L 687,416 L 686,417 L 683,417 L 682,418 L 678,418 L 677,419 L 675,419 L 674,420 L 672,420 L 671,421 L 670,421 L 669,422 L 667,422 L 666,423 L 665,423 L 664,424 L 663,424 L 662,425 L 661,425 L 660,426 L 659,426 L 658,427 L 657,427 L 655,429 L 654,429 L 653,430 L 652,430 L 650,432 L 649,432 L 647,434 L 646,434 L 641,439 L 640,439 L 632,447 L 632,448 L 628,452 L 628,453 L 625,456 L 625,457 L 623,459 L 623,460 L 622,461 L 622,462 L 621,463 L 621,464 L 619,466 L 619,467 L 618,468 L 618,469 L 617,470 L 617,472 L 616,473 L 616,474 L 615,475 L 615,476 L 614,477 L 614,479 L 613,480 L 613,482 L 612,483 L 612,486 L 611,487 L 611,491 L 610,492 L 610,497 L 609,498 L 609,519 L 610,520 L 610,526 L 611,527 L 611,531 L 612,532 L 612,535 L 613,536 L 613,538 L 614,539 L 614,541 L 615,542 L 615,543 L 616,544 L 616,546 L 617,547 L 617,548 L 618,549 L 618,550 L 619,551 L 619,552 L 620,553 L 620,554 L 621,555 L 621,556 L 622,557 L 622,558 L 624,560 L 624,561 L 626,563 L 626,564 L 629,567 L 629,568 L 635,574 L 635,575 L 636,576 L 637,576 L 644,583 L 645,583 L 648,586 L 649,586 L 651,588 L 652,588 L 654,590 L 655,590 L 657,592 L 658,592 L 659,593 L 660,593 L 661,594 L 662,594 L 663,595 L 664,595 L 665,596 L 667,596 L 668,597 L 669,597 L 670,598 L 672,598 L 673,599 L 676,599 L 677,600 L 679,600 L 680,601 L 683,601 L 685,603 L 684,604 L 684,623 L 685,624 L 685,649 L 684,650 L 684,671 L 683,672 L 683,679 L 682,680 L 682,685 L 681,686 L 681,689 L 680,690 L 680,693 L 679,694 L 679,697 L 678,698 L 678,700 L 677,701 L 677,704 L 676,705 L 676,706 L 675,707 L 675,709 L 674,710 L 674,711 L 673,712 L 673,714 L 672,715 L 672,716 L 671,717 L 671,718 L 670,719 L 670,720 L 669,721 L 669,722 L 668,723 L 668,724 L 667,725 L 667,726 L 665,728 L 665,729 L 663,731 L 663,732 L 661,734 L 661,735 L 659,737 L 659,738 L 655,742 L 655,743 L 639,759 L 638,759 L 634,763 L 633,763 L 630,766 L 629,766 L 627,768 L 626,768 L 624,770 L 623,770 L 622,771 L 621,771 L 619,773 L 618,773 L 617,774 L 616,774 L 615,775 L 614,775 L 613,776 L 612,776 L 611,777 L 610,777 L 609,778 L 608,778 L 607,779 L 606,779 L 605,780 L 603,780 L 602,781 L 601,781 L 600,782 L 598,782 L 597,783 L 596,783 L 595,784 L 593,784 L 592,785 L 589,785 L 588,786 L 585,786 L 584,787 L 581,787 L 580,788 L 575,788 L 574,789 L 565,789 L 564,790 L 549,790 L 548,789 L 539,789 L 538,788 L 533,788 L 532,787 L 528,787 L 527,786 L 524,786 L 523,785 L 520,785 L 519,784 L 517,784 L 516,783 L 514,783 L 513,782 L 511,782 L 510,781 L 508,781 L 507,780 L 506,780 L 505,779 L 504,779 L 503,778 L 502,778 L 501,777 L 500,777 L 499,776 L 498,776 L 497,775 L 496,775 L 495,774 L 494,774 L 492,772 L 491,772 L 490,771 L 489,771 L 487,769 L 486,769 L 484,767 L 483,767 L 480,764 L 479,764 L 475,760 L 474,760 L 458,744 L 458,743 L 454,739 L 454,738 L 452,736 L 452,735 L 449,732 L 449,731 L 448,730 L 448,729 L 446,727 L 446,726 L 445,725 L 445,724 L 444,723 L 444,722 L 443,721 L 443,720 L 442,719 L 442,718 L 441,717 L 441,716 L 440,715 L 440,714 L 439,713 L 439,711 L 438,710 L 438,709 L 437,708 L 437,706 L 436,705 L 436,703 L 435,702 L 435,700 L 434,699 L 434,697 L 433,696 L 433,693 L 432,692 L 432,688 L 431,687 L 431,683 L 430,682 L 430,677 L 429,676 L 429,667 L 428,666 L 428,647 L 427,646 L 427,592 L 428,591 L 427,590 L 428,589 L 430,589 L 431,588 L 436,588 L 437,587 L 441,587 L 442,586 L 445,586 L 446,585 L 449,585 L 450,584 L 452,584 L 453,583 L 455,583 L 456,582 L 458,582 L 459,581 L 460,581 L 461,580 L 463,580 L 464,579 L 465,579 L 466,578 L 467,578 L 468,577 L 469,577 L 470,576 L 471,576 L 472,575 L 473,575 L 474,574 L 475,574 L 476,573 L 477,573 L 479,571 L 480,571 L 481,570 L 482,570 L 484,568 L 485,568 L 487,566 L 488,566 L 491,563 L 492,563 L 495,560 L 496,560 L 501,555 L 502,555 L 520,537 L 520,536 L 524,532 L 524,531 L 528,527 L 528,526 L 530,524 L 530,523 L 532,521 L 532,520 L 534,518 L 534,517 L 536,515 L 536,514 L 538,512 L 538,511 L 539,510 L 539,509 L 541,507 L 541,506 L 542,505 L 542,504 L 543,503 L 543,502 L 545,500 L 545,499 L 546,498 L 546,497 L 547,496 L 547,495 L 548,494 L 548,493 L 549,492 L 549,491 L 550,490 L 550,489 L 551,488 L 551,487 L 552,486 L 552,485 L 553,484 L 553,483 L 554,482 L 554,481 L 555,480 L 555,478 L 556,477 L 556,476 L 557,475 L 557,473 L 558,472 L 558,471 L 559,470 L 559,468 L 560,467 L 560,466 L 561,465 L 561,463 L 562,462 L 562,460 L 563,459 L 563,457 L 564,456 L 564,454 L 565,453 L 565,451 L 566,450 L 566,448 L 567,447 L 567,441 L 566,440 L 566,438 L 565,437 L 565,436 L 564,435 L 564,432 L 565,431 L 565,427 L 566,426 L 566,423 L 567,422 L 567,419 L 568,418 L 568,416 L 569,415 L 569,413 L 570,412 L 570,409 L 571,408 L 571,406 L 572,405 L 572,402 L 573,401 L 573,398 L 574,397 L 574,394 L 575,393 L 575,389 L 576,388 L 576,385 L 577,384 L 577,380 L 578,379 L 578,375 L 579,374 L 579,369 L 580,368 L 580,362 L 581,361 L 581,356 L 582,355 L 582,348 L 583,347 L 583,338 L 584,337 L 584,325 L 585,324 L 585,287 L 584,286 L 584,282 L 583,281 L 583,278 L 582,277 L 582,274 L 581,273 L 581,272 L 580,271 L 580,269 L 579,268 L 579,267 L 578,266 L 578,264 L 577,263 L 577,262 L 576,261 L 576,260 L 574,258 L 574,257 L 572,255 L 572,254 L 570,252 L 570,251 L 567,248 L 567,247 L 553,233 L 552,233 L 549,230 L 548,230 L 545,227 L 544,227 L 543,226 L 542,226 L 540,224 L 539,224 L 537,222 L 536,222 L 535,221 L 534,221 L 532,219 L 532,218 L 530,216 L 530,215 L 529,214 L 529,213 L 527,211 L 527,210 L 518,201 L 517,201 L 515,199 L 514,199 L 512,197 L 511,197 L 510,196 L 508,196 L 507,195 L 506,195 L 505,194 L 503,194 L 502,193 L 499,193 L 498,192 L 483,192 L 482,193 L 480,193 L 479,194 L 477,194 L 476,195 L 475,195 L 474,196 L 473,196 L 471,198 L 470,198 L 466,202 L 466,203 L 464,205 L 464,206 L 463,207 L 463,208 L 462,209 L 462,211 L 461,212 L 461,216 L 460,217 L 460,230 L 461,231 L 461,234 L 462,235 L 462,238 L 463,239 L 463,240 L 464,241 L 464,242 L 465,243 L 465,244 L 468,247 L 468,248 L 469,249 L 470,249 L 474,253 L 475,253 L 477,255 L 478,255 L 479,256 L 480,256 L 481,257 L 482,257 L 483,258 L 484,258 L 485,259 L 486,259 L 487,260 L 489,260 L 490,261 L 493,261 L 494,262 L 508,262 L 509,261 L 510,261 L 511,260 L 513,260 L 515,258 L 516,258 L 517,257 L 523,257 L 524,258 L 526,258 L 528,260 L 529,260 L 537,268 L 537,269 L 539,271 L 539,272 L 540,273 L 540,274 L 541,275 L 541,276 L 542,277 L 542,278 L 543,279 L 543,281 L 544,282 L 544,284 L 545,285 L 545,288 L 546,289 L 546,294 L 547,295 L 547,315 L 546,316 L 546,328 L 545,329 L 545,338 L 544,339 L 544,347 L 543,348 L 543,355 L 542,356 L 542,361 L 541,362 L 541,367 L 540,368 L 540,372 L 539,373 L 539,377 L 538,378 L 538,382 L 537,383 L 537,388 L 536,389 L 536,392 L 535,393 L 535,396 L 534,397 L 534,400 L 533,401 L 533,404 L 532,405 L 532,407 L 531,408 L 531,411 L 530,412 L 530,414 L 529,415 L 529,417 L 528,418 L 528,420 L 527,421 L 527,422 L 525,424 L 524,424 L 520,428 L 520,429 L 518,431 L 518,432 L 516,434 L 516,435 L 515,436 L 515,437 L 514,438 L 514,439 L 513,440 L 513,441 L 512,442 L 512,444 L 511,445 L 511,446 L 510,447 L 510,449 L 509,450 L 509,452 L 508,453 L 508,454 L 507,455 L 507,457 L 506,458 L 506,459 L 505,460 L 505,462 L 504,463 L 504,464 L 503,465 L 503,466 L 502,467 L 502,469 L 501,470 L 501,471 L 500,472 L 500,473 L 499,474 L 499,475 L 497,477 L 497,478 L 496,479 L 496,480 L 495,481 L 495,482 L 493,484 L 493,485 L 492,486 L 492,487 L 490,489 L 490,490 L 488,492 L 488,493 L 485,496 L 485,497 L 482,500 L 482,501 L 479,504 L 479,505 L 466,518 L 465,518 L 461,522 L 460,522 L 457,525 L 456,525 L 454,527 L 453,527 L 452,528 L 451,528 L 450,529 L 449,529 L 448,530 L 447,530 L 446,531 L 445,531 L 444,532 L 443,532 L 442,533 L 441,533 L 440,534 L 438,534 L 437,535 L 435,535 L 434,536 L 432,536 L 431,537 L 428,537 L 427,538 L 422,538 L 421,539 L 397,539 L 396,538 L 392,538 L 391,537 L 387,537 L 386,536 L 384,536 L 383,535 L 381,535 L 380,534 L 379,534 L 378,533 L 376,533 L 375,532 L 374,532 L 373,531 L 372,531 L 371,530 L 370,530 L 368,528 L 367,528 L 366,527 L 365,527 L 362,524 L 361,524 L 359,522 L 358,522 L 353,517 L 352,517 L 340,505 L 340,504 L 337,501 L 337,500 L 334,497 L 334,496 L 331,493 L 331,492 L 329,490 L 329,489 L 328,488 L 328,487 L 326,485 L 326,484 L 324,482 L 324,481 L 323,480 L 323,479 L 322,478 L 322,477 L 321,476 L 321,475 L 320,474 L 320,473 L 319,472 L 319,471 L 318,470 L 318,469 L 317,468 L 317,467 L 316,466 L 316,465 L 315,464 L 315,462 L 314,461 L 314,460 L 313,459 L 313,458 L 312,457 L 312,455 L 311,454 L 311,453 L 310,452 L 310,450 L 309,449 L 309,447 L 308,446 L 308,444 L 307,443 L 307,442 L 306,441 L 306,440 L 305,439 L 305,438 L 304,437 L 304,436 L 303,435 L 303,434 L 301,432 L 301,431 L 298,428 L 298,427 L 295,424 L 294,424 L 292,422 L 292,421 L 291,420 L 291,418 L 290,417 L 290,415 L 289,414 L 289,411 L 288,410 L 288,408 L 287,407 L 287,405 L 286,404 L 286,401 L 285,400 L 285,397 L 284,396 L 284,392 L 283,391 L 283,388 L 282,387 L 282,383 L 281,382 L 281,378 L 280,377 L 280,372 L 279,371 L 279,366 L 278,365 L 278,360 L 277,359 L 277,353 L 276,352 L 276,345 L 275,344 L 275,338 L 274,337 L 274,330 L 273,329 L 273,323 L 272,322 L 272,311 L 271,310 L 271,298 L 272,297 L 272,291 L 273,290 L 273,286 L 274,285 L 274,283 L 275,282 L 275,280 L 276,279 L 276,277 L 277,276 L 277,275 L 278,274 L 278,273 L 279,272 L 279,271 L 281,269 L 281,268 L 290,259 L 291,259 L 292,258 L 293,258 L 294,257 L 298,257 L 299,258 L 303,258 L 304,259 L 305,259 L 306,260 L 307,260 L 308,261 L 309,261 L 310,262 L 324,262 L 325,261 L 328,261 L 329,260 L 331,260 L 332,259 L 334,259 L 335,258 L 336,258 L 337,257 L 338,257 L 339,256 L 340,256 L 341,255 L 342,255 L 345,252 L 346,252 L 353,245 L 353,244 L 355,242 L 355,240 L 356,239 L 356,238 L 357,237 L 357,234 L 358,233 L 358,216 L 357,215 L 357,212 L 356,211 L 356,209 L 355,208 L 355,207 L 354,206 L 354,205 L 352,203 L 352,202 L 349,199 L 348,199 L 345,196 L 344,196 L 343,195 L 342,195 L 341,194 L 339,194 L 338,193 L 335,193 L 334,192 Z" fill="black" /></svg>