<?xml version="1.0" encoding="utf-8" ?>
<svg baseProfile="full" height="1024px" version="1.1" width="1024px" xmlns="http://www.w3.org/2000/svg" xmlns:ev="http://www.w3.org/2001/xml-events" xmlns:xlink="http://www.w3.org/1999/xlink"><defs /><path d="M 765,614 Z" fill="black" /><path d="M 474,187 L 473,188 L 465,188 L 464,189 L 462,189 L 461,190 L 459,190 L 454,195 L 454,197 L 453,198 L 453,199 L 452,200 L 452,204 L 451,205 L 451,211 L 450,212 L 450,219 L 449,220 L 449,225 L 448,226 L 448,231 L 447,232 L 447,235 L 446,236 L 446,239 L 445,240 L 445,243 L 443,245 L 440,245 L 439,246 L 437,246 L 436,247 L 434,247 L 433,248 L 431,248 L 430,249 L 428,249 L 427,250 L 425,250 L 424,251 L 422,251 L 421,252 L 420,252 L 419,253 L 417,253 L 416,254 L 414,254 L 413,255 L 412,255 L 411,256 L 410,256 L 409,257 L 407,257 L 406,258 L 405,258 L 404,259 L 403,259 L 402,260 L 400,260 L 399,261 L 398,261 L 397,262 L 396,262 L 395,263 L 394,263 L 393,264 L 392,264 L 391,265 L 390,265 L 389,266 L 388,266 L 387,267 L 386,267 L 385,268 L 384,268 L 383,269 L 382,269 L 381,270 L 380,270 L 378,272 L 377,272 L 376,273 L 375,273 L 373,271 L 372,271 L 370,269 L 369,269 L 367,267 L 366,267 L 364,265 L 363,265 L 360,262 L 359,262 L 358,261 L 357,261 L 355,259 L 354,259 L 352,257 L 351,257 L 349,255 L 348,255 L 346,253 L 345,253 L 343,251 L 342,251 L 341,250 L 340,250 L 338,248 L 337,248 L 336,247 L 328,247 L 327,248 L 326,248 L 325,249 L 324,249 L 317,256 L 316,256 L 308,264 L 307,264 L 270,301 L 270,302 L 256,316 L 256,317 L 255,318 L 254,318 L 254,319 L 249,324 L 249,325 L 248,326 L 248,328 L 247,329 L 247,330 L 248,331 L 248,335 L 249,336 L 249,337 L 251,339 L 251,340 L 253,342 L 253,343 L 256,346 L 256,347 L 259,350 L 259,351 L 263,355 L 263,356 L 267,360 L 267,361 L 272,366 L 272,367 L 276,371 L 276,372 L 277,373 L 277,375 L 276,376 L 276,377 L 275,378 L 275,379 L 273,381 L 273,382 L 272,383 L 272,384 L 271,385 L 271,386 L 270,387 L 270,388 L 269,389 L 269,390 L 268,391 L 268,393 L 267,394 L 267,395 L 266,396 L 266,397 L 265,398 L 265,399 L 264,400 L 264,402 L 263,403 L 263,404 L 262,405 L 262,407 L 261,408 L 261,409 L 260,410 L 260,412 L 259,413 L 259,415 L 258,416 L 258,418 L 257,419 L 257,420 L 256,421 L 256,423 L 255,424 L 255,426 L 254,427 L 254,428 L 253,429 L 253,431 L 252,432 L 252,433 L 251,434 L 251,436 L 250,437 L 250,438 L 249,439 L 249,441 L 248,442 L 247,442 L 246,443 L 242,443 L 241,444 L 237,444 L 236,445 L 232,445 L 231,446 L 226,446 L 225,447 L 220,447 L 219,448 L 213,448 L 212,449 L 208,449 L 207,450 L 203,450 L 202,451 L 201,451 L 200,452 L 199,452 L 197,454 L 197,455 L 196,456 L 196,457 L 195,458 L 195,462 L 194,463 L 194,489 L 193,490 L 193,534 L 194,535 L 194,558 L 195,559 L 195,564 L 196,565 L 196,566 L 197,567 L 197,568 L 199,570 L 200,570 L 201,571 L 202,571 L 203,572 L 206,572 L 207,573 L 212,573 L 213,574 L 218,574 L 219,575 L 224,575 L 225,576 L 229,576 L 230,577 L 234,577 L 235,578 L 239,578 L 240,579 L 243,579 L 244,580 L 247,580 L 249,582 L 249,583 L 250,584 L 250,586 L 251,587 L 251,589 L 252,590 L 252,592 L 253,593 L 253,594 L 254,595 L 254,597 L 255,598 L 255,600 L 256,601 L 256,603 L 257,604 L 257,606 L 258,607 L 258,608 L 259,609 L 259,611 L 260,612 L 260,614 L 261,615 L 261,616 L 262,617 L 262,619 L 263,620 L 263,621 L 264,622 L 264,624 L 265,625 L 265,626 L 266,627 L 266,628 L 267,629 L 267,630 L 268,631 L 268,632 L 269,633 L 269,635 L 270,636 L 270,637 L 271,638 L 271,639 L 273,641 L 273,642 L 274,643 L 274,644 L 275,645 L 275,646 L 277,648 L 277,649 L 274,652 L 274,653 L 271,656 L 271,657 L 267,661 L 267,662 L 264,665 L 264,666 L 261,669 L 261,670 L 258,673 L 258,674 L 256,676 L 256,677 L 253,680 L 253,681 L 251,683 L 251,684 L 250,685 L 250,686 L 249,687 L 249,689 L 248,690 L 248,695 L 249,696 L 249,698 L 251,700 L 251,701 L 257,707 L 257,708 L 268,719 L 268,720 L 292,744 L 292,745 L 293,745 L 308,760 L 309,760 L 319,770 L 320,770 L 325,775 L 326,775 L 327,776 L 328,776 L 329,777 L 335,777 L 336,776 L 337,776 L 338,775 L 339,775 L 341,773 L 342,773 L 344,771 L 345,771 L 347,769 L 348,769 L 351,766 L 352,766 L 354,764 L 355,764 L 358,761 L 359,761 L 361,759 L 362,759 L 364,757 L 365,757 L 368,754 L 369,754 L 371,752 L 372,752 L 374,750 L 375,750 L 376,749 L 377,749 L 378,750 L 379,750 L 380,751 L 381,751 L 382,752 L 383,752 L 385,754 L 386,754 L 387,755 L 388,755 L 389,756 L 390,756 L 391,757 L 392,757 L 393,758 L 394,758 L 395,759 L 396,759 L 397,760 L 398,760 L 399,761 L 400,761 L 401,762 L 403,762 L 404,763 L 405,763 L 406,764 L 408,764 L 409,765 L 410,765 L 411,766 L 413,766 L 414,767 L 415,767 L 416,768 L 418,768 L 419,769 L 421,769 L 422,770 L 424,770 L 425,771 L 426,771 L 427,772 L 429,772 L 430,773 L 432,773 L 433,774 L 435,774 L 436,775 L 439,775 L 440,776 L 442,776 L 443,777 L 444,777 L 446,779 L 446,782 L 447,783 L 447,787 L 448,788 L 448,792 L 449,793 L 449,799 L 450,800 L 450,806 L 451,807 L 451,813 L 452,814 L 452,819 L 453,820 L 453,824 L 454,825 L 454,827 L 455,828 L 455,829 L 457,831 L 458,831 L 459,832 L 460,832 L 461,833 L 462,833 L 463,834 L 467,834 L 468,835 L 485,835 L 486,836 L 534,836 L 535,835 L 553,835 L 554,834 L 559,834 L 560,833 L 562,833 L 563,832 L 564,832 L 566,830 L 567,830 L 567,829 L 569,827 L 569,826 L 570,825 L 570,822 L 571,821 L 571,816 L 572,815 L 572,809 L 573,808 L 573,802 L 574,801 L 574,796 L 575,795 L 575,790 L 576,789 L 576,785 L 577,784 L 577,781 L 578,780 L 578,777 L 579,776 L 582,776 L 583,775 L 586,775 L 587,774 L 589,774 L 590,773 L 592,773 L 593,772 L 595,772 L 596,771 L 598,771 L 599,770 L 601,770 L 602,769 L 604,769 L 605,768 L 606,768 L 607,767 L 609,767 L 610,766 L 612,766 L 613,765 L 614,765 L 615,764 L 617,764 L 618,763 L 619,763 L 620,762 L 621,762 L 622,761 L 624,761 L 625,760 L 626,760 L 627,759 L 628,759 L 629,758 L 630,758 L 631,757 L 632,757 L 633,756 L 634,756 L 635,755 L 636,755 L 637,754 L 638,754 L 639,753 L 640,753 L 641,752 L 642,752 L 644,750 L 645,750 L 646,749 L 647,749 L 648,750 L 649,750 L 651,752 L 652,752 L 655,755 L 656,755 L 658,757 L 659,757 L 661,759 L 662,759 L 664,761 L 665,761 L 667,763 L 668,763 L 670,765 L 671,765 L 673,767 L 674,767 L 676,769 L 677,769 L 679,771 L 680,771 L 682,773 L 683,773 L 684,774 L 685,774 L 686,775 L 687,775 L 688,776 L 696,776 L 697,775 L 698,775 L 700,773 L 701,773 L 713,761 L 714,761 L 728,747 L 729,747 L 736,740 L 736,739 L 738,737 L 739,737 L 740,736 L 740,735 L 759,716 L 759,715 L 771,703 L 771,702 L 773,700 L 773,699 L 774,698 L 774,696 L 775,695 L 775,692 L 774,691 L 774,689 L 773,688 L 773,687 L 772,686 L 772,685 L 771,684 L 771,683 L 769,681 L 769,680 L 766,677 L 766,676 L 764,674 L 764,673 L 761,670 L 761,669 L 757,665 L 757,664 L 754,661 L 754,660 L 751,657 L 751,656 L 747,652 L 747,651 L 746,650 L 746,648 L 747,647 L 747,646 L 749,644 L 749,643 L 750,642 L 750,641 L 751,640 L 751,639 L 752,638 L 752,637 L 753,636 L 753,635 L 754,634 L 754,633 L 755,632 L 755,631 L 756,630 L 756,629 L 757,628 L 757,627 L 758,626 L 758,625 L 759,624 L 759,622 L 760,621 L 760,620 L 761,619 L 761,618 L 762,617 L 762,615 L 763,614 L 763,613 L 764,612 L 764,610 L 765,609 L 765,607 L 766,606 L 766,605 L 767,604 L 767,602 L 768,601 L 768,600 L 769,599 L 769,597 L 770,596 L 770,594 L 771,593 L 771,591 L 772,590 L 772,589 L 773,588 L 773,586 L 774,585 L 774,583 L 775,582 L 775,581 L 776,580 L 778,580 L 779,579 L 783,579 L 784,578 L 788,578 L 789,577 L 793,577 L 794,576 L 799,576 L 800,575 L 805,575 L 806,574 L 811,574 L 812,573 L 816,573 L 817,572 L 820,572 L 821,571 L 822,571 L 823,570 L 824,570 L 827,567 L 827,566 L 828,565 L 828,562 L 829,561 L 829,544 L 830,543 L 830,479 L 829,478 L 829,461 L 828,460 L 828,458 L 827,457 L 827,456 L 826,455 L 826,454 L 824,452 L 823,452 L 822,451 L 821,451 L 820,450 L 816,450 L 815,449 L 810,449 L 809,448 L 804,448 L 803,447 L 798,447 L 797,446 L 791,446 L 790,445 L 786,445 L 785,444 L 781,444 L 780,443 L 777,443 L 774,440 L 774,439 L 773,438 L 773,436 L 772,435 L 772,434 L 771,433 L 771,431 L 770,430 L 770,428 L 769,427 L 769,425 L 768,424 L 768,423 L 767,422 L 767,420 L 766,419 L 766,417 L 765,416 L 765,414 L 764,413 L 764,412 L 763,411 L 763,409 L 762,408 L 762,407 L 761,406 L 761,405 L 760,404 L 760,402 L 759,401 L 759,400 L 758,399 L 758,397 L 757,396 L 757,395 L 756,394 L 756,393 L 755,392 L 755,391 L 754,390 L 754,389 L 753,388 L 753,387 L 752,386 L 752,385 L 751,384 L 751,383 L 750,382 L 750,381 L 748,379 L 748,378 L 747,377 L 747,376 L 746,375 L 746,374 L 745,373 L 747,371 L 747,370 L 751,366 L 751,365 L 756,360 L 756,359 L 759,356 L 759,355 L 763,351 L 763,350 L 766,347 L 766,346 L 769,343 L 769,342 L 772,339 L 772,338 L 773,337 L 773,335 L 774,334 L 774,327 L 773,326 L 773,325 L 771,323 L 771,322 L 762,313 L 762,312 L 751,301 L 751,300 L 733,282 L 733,281 L 732,281 L 731,280 L 731,279 L 722,270 L 721,270 L 710,259 L 709,259 L 699,249 L 698,249 L 696,247 L 693,247 L 692,246 L 691,246 L 690,247 L 687,247 L 686,248 L 684,248 L 682,250 L 681,250 L 679,252 L 678,252 L 675,255 L 674,255 L 672,257 L 671,257 L 669,259 L 668,259 L 666,261 L 665,261 L 663,263 L 662,263 L 660,265 L 659,265 L 658,266 L 657,266 L 655,268 L 654,268 L 652,270 L 651,270 L 650,271 L 649,271 L 647,273 L 646,273 L 645,272 L 644,272 L 643,271 L 642,271 L 640,269 L 639,269 L 638,268 L 637,268 L 636,267 L 635,267 L 634,266 L 633,266 L 632,265 L 631,265 L 630,264 L 629,264 L 628,263 L 627,263 L 626,262 L 625,262 L 624,261 L 622,261 L 621,260 L 620,260 L 619,259 L 618,259 L 617,258 L 615,258 L 614,257 L 613,257 L 612,256 L 611,256 L 610,255 L 608,255 L 607,254 L 605,254 L 604,253 L 603,253 L 602,252 L 600,252 L 599,251 L 597,251 L 596,250 L 594,250 L 593,249 L 591,249 L 590,248 L 588,248 L 587,247 L 585,247 L 584,246 L 581,246 L 580,245 L 579,245 L 578,244 L 578,243 L 577,242 L 577,238 L 576,237 L 576,233 L 575,232 L 575,228 L 574,227 L 574,221 L 573,220 L 573,214 L 572,213 L 572,207 L 571,206 L 571,201 L 570,200 L 570,197 L 569,196 L 569,195 L 564,190 L 563,190 L 562,189 L 560,189 L 559,188 L 552,188 L 551,187 Z" fill="black" /></svg>