<?xml version="1.0" encoding="utf-8" ?>
<svg baseProfile="full" height="1024px" version="1.1" width="1024px" xmlns="http://www.w3.org/2000/svg" xmlns:ev="http://www.w3.org/2001/xml-events" xmlns:xlink="http://www.w3.org/1999/xlink"><defs /><path d="M 518,800 L 519,800 Z" fill="black" /><path d="M 512,800 L 516,800 Z" fill="black" /><path d="M 504,800 Z" fill="black" /><path d="M 495,800 L 497,800 Z" fill="black" /><path d="M 546,799 Z" fill="black" /><path d="M 480,799 L 481,799 Z" fill="black" /><path d="M 577,755 Z" fill="black" /><path d="M 383,727 Z" fill="black" /><path d="M 666,608 Z" fill="black" /><path d="M 744,597 Z" fill="black" /><path d="M 390,584 Z" fill="black" /><path d="M 480,581 L 479,582 L 478,582 L 477,583 L 476,583 L 471,588 L 471,589 L 469,591 L 469,592 L 467,594 L 467,595 L 466,596 L 466,597 L 465,598 L 465,600 L 464,601 L 464,603 L 463,604 L 463,607 L 462,608 L 462,614 L 461,615 L 461,641 L 462,642 L 462,644 L 463,645 L 463,648 L 464,649 L 464,651 L 465,652 L 465,653 L 466,654 L 466,656 L 467,657 L 467,658 L 468,659 L 468,660 L 469,661 L 469,663 L 470,664 L 470,665 L 471,666 L 471,667 L 472,668 L 472,669 L 473,670 L 473,671 L 474,672 L 474,673 L 476,675 L 476,676 L 477,677 L 477,678 L 478,679 L 478,680 L 480,682 L 480,683 L 481,684 L 481,685 L 483,687 L 483,688 L 485,690 L 485,691 L 486,692 L 486,693 L 489,696 L 489,697 L 492,700 L 492,701 L 496,705 L 496,706 L 500,710 L 500,711 L 509,720 L 509,721 L 510,721 L 511,722 L 512,722 L 514,720 L 515,720 L 526,709 L 526,708 L 530,704 L 530,703 L 533,700 L 533,699 L 536,696 L 536,695 L 538,693 L 538,692 L 540,690 L 540,689 L 541,688 L 541,687 L 543,685 L 543,684 L 544,683 L 544,682 L 546,680 L 546,679 L 547,678 L 547,677 L 548,676 L 548,675 L 550,673 L 550,672 L 551,671 L 551,670 L 552,669 L 552,668 L 553,667 L 553,666 L 554,665 L 554,664 L 555,663 L 555,662 L 556,661 L 556,660 L 557,659 L 557,657 L 558,656 L 558,655 L 559,654 L 559,652 L 560,651 L 560,649 L 561,648 L 561,645 L 562,644 L 562,640 L 563,639 L 563,627 L 564,626 L 564,625 L 563,624 L 564,623 L 563,622 L 563,614 L 562,613 L 562,609 L 561,608 L 561,606 L 560,605 L 560,603 L 559,602 L 559,601 L 558,600 L 558,599 L 557,598 L 557,597 L 555,595 L 555,594 L 553,592 L 553,591 L 550,588 L 550,587 L 547,584 L 546,584 L 544,582 L 543,582 L 542,581 Z" fill="black" /><path d="M 272,581 Z" fill="black" /><path d="M 260,564 Z" fill="black" /><path d="M 544,561 L 545,561 Z" fill="black" /><path d="M 334,558 Z" fill="black" /><path d="M 554,554 Z" fill="black" /><path d="M 804,532 L 804,533 Z" fill="black" /><path d="M 694,477 Z" fill="black" /><path d="M 379,474 L 379,475 Z" fill="black" /><path d="M 220,466 L 220,468 Z" fill="black" /><path d="M 334,456 Z" fill="black" /><path d="M 767,435 Z" fill="black" /><path d="M 420,386 Z" fill="black" /><path d="M 288,360 Z" fill="black" /><path d="M 418,354 Z" fill="black" /><path d="M 623,353 Z" fill="black" /><path d="M 623,349 L 623,351 Z" fill="black" /><path d="M 274,331 Z" fill="black" /><path d="M 623,328 L 623,329 Z" fill="black" /><path d="M 603,304 L 603,305 Z" fill="black" /><path d="M 420,298 Z" fill="black" /><path d="M 422,279 Z" fill="black" /><path d="M 597,271 Z" fill="black" /><path d="M 352,261 L 351,262 L 349,262 L 348,263 L 347,263 L 346,264 L 345,264 L 343,266 L 342,266 L 333,275 L 332,275 L 325,282 L 324,282 L 319,287 L 318,287 L 312,293 L 311,293 L 300,304 L 299,304 L 285,318 L 285,319 L 280,324 L 280,325 L 278,327 L 278,328 L 277,329 L 277,330 L 276,331 L 276,333 L 275,334 L 275,337 L 276,338 L 276,339 L 277,340 L 277,341 L 278,342 L 278,343 L 280,345 L 280,346 L 283,349 L 283,350 L 285,352 L 285,353 L 287,355 L 287,356 L 290,359 L 290,360 L 293,363 L 293,364 L 296,367 L 296,368 L 300,372 L 300,373 L 301,374 L 299,376 L 299,377 L 298,378 L 298,379 L 297,380 L 297,381 L 296,382 L 296,383 L 295,384 L 295,385 L 294,386 L 294,387 L 293,388 L 293,389 L 292,390 L 292,391 L 291,392 L 291,393 L 290,394 L 290,395 L 289,396 L 289,397 L 288,398 L 288,400 L 287,401 L 287,402 L 286,403 L 286,404 L 285,405 L 285,406 L 284,407 L 284,409 L 283,410 L 283,411 L 282,412 L 282,413 L 281,414 L 281,416 L 280,417 L 280,419 L 279,420 L 279,421 L 278,422 L 278,424 L 277,425 L 277,426 L 276,427 L 276,429 L 275,430 L 275,431 L 274,432 L 274,433 L 272,435 L 268,435 L 267,436 L 262,436 L 261,437 L 256,437 L 255,438 L 249,438 L 248,439 L 242,439 L 241,440 L 238,440 L 237,441 L 234,441 L 233,442 L 231,442 L 230,443 L 228,443 L 225,446 L 225,447 L 224,448 L 224,452 L 223,453 L 223,462 L 222,463 L 222,476 L 221,477 L 221,534 L 222,535 L 222,546 L 223,547 L 223,549 L 224,550 L 224,551 L 225,552 L 226,552 L 228,554 L 230,554 L 231,555 L 233,555 L 234,556 L 237,556 L 238,557 L 241,557 L 242,558 L 246,558 L 247,559 L 250,559 L 251,560 L 255,560 L 256,561 L 259,561 L 260,562 L 264,562 L 265,563 L 267,563 L 268,564 L 268,565 L 269,566 L 269,568 L 270,569 L 270,570 L 271,571 L 271,573 L 272,574 L 272,575 L 273,576 L 273,578 L 274,579 L 274,581 L 275,582 L 275,584 L 276,585 L 276,586 L 277,587 L 277,589 L 278,590 L 278,592 L 279,593 L 279,594 L 280,595 L 280,596 L 281,597 L 281,599 L 282,600 L 282,601 L 283,602 L 283,603 L 284,604 L 284,605 L 285,606 L 285,607 L 286,608 L 286,610 L 287,611 L 287,612 L 288,613 L 288,614 L 289,615 L 289,616 L 290,617 L 290,618 L 291,619 L 291,620 L 292,621 L 292,622 L 293,623 L 293,624 L 294,625 L 294,626 L 295,627 L 295,628 L 296,629 L 295,630 L 295,631 L 294,632 L 294,633 L 292,635 L 292,636 L 289,639 L 289,640 L 287,642 L 287,643 L 284,646 L 284,647 L 281,650 L 281,651 L 279,653 L 279,654 L 278,655 L 278,656 L 276,658 L 276,659 L 274,661 L 274,662 L 272,664 L 272,665 L 271,666 L 271,672 L 272,673 L 272,674 L 274,676 L 274,677 L 277,680 L 277,681 L 281,685 L 281,686 L 284,689 L 284,690 L 289,695 L 289,696 L 309,716 L 310,716 L 317,723 L 318,723 L 324,729 L 325,729 L 331,735 L 332,735 L 337,740 L 338,740 L 342,744 L 343,744 L 344,745 L 345,745 L 346,746 L 347,746 L 348,747 L 349,747 L 350,746 L 353,746 L 354,745 L 355,745 L 356,744 L 357,744 L 359,742 L 360,742 L 362,740 L 363,740 L 365,738 L 366,738 L 370,734 L 371,734 L 374,731 L 375,731 L 378,728 L 379,728 L 382,725 L 383,725 L 386,722 L 387,723 L 389,723 L 390,724 L 391,724 L 392,725 L 394,725 L 395,726 L 396,726 L 397,727 L 398,727 L 399,728 L 400,728 L 401,729 L 403,729 L 404,730 L 405,730 L 406,731 L 407,731 L 408,732 L 409,732 L 410,733 L 412,733 L 413,734 L 414,734 L 415,735 L 416,735 L 417,736 L 419,736 L 420,737 L 421,737 L 422,738 L 423,738 L 424,739 L 426,739 L 427,740 L 428,740 L 429,741 L 430,741 L 431,742 L 432,742 L 433,743 L 434,743 L 435,744 L 436,744 L 437,745 L 438,745 L 439,746 L 440,746 L 441,747 L 442,747 L 443,748 L 444,748 L 446,750 L 446,753 L 447,754 L 447,758 L 448,759 L 448,763 L 449,764 L 449,769 L 450,770 L 450,774 L 451,775 L 451,778 L 452,779 L 452,781 L 453,782 L 453,785 L 454,786 L 454,787 L 455,788 L 455,789 L 459,793 L 460,793 L 461,794 L 463,794 L 464,795 L 468,795 L 469,796 L 476,796 L 477,797 L 491,797 L 492,798 L 529,798 L 530,797 L 547,797 L 548,796 L 554,796 L 555,795 L 558,795 L 559,794 L 561,794 L 562,793 L 563,793 L 566,790 L 566,789 L 567,788 L 567,787 L 568,786 L 568,784 L 569,783 L 569,780 L 570,779 L 570,775 L 571,774 L 571,771 L 572,770 L 572,766 L 573,765 L 573,761 L 574,760 L 574,756 L 575,755 L 575,753 L 576,752 L 576,750 L 577,749 L 578,749 L 580,747 L 581,747 L 582,746 L 584,746 L 585,745 L 586,745 L 587,744 L 588,744 L 589,743 L 591,743 L 592,742 L 593,742 L 594,741 L 595,741 L 596,740 L 598,740 L 599,739 L 600,739 L 601,738 L 602,738 L 603,737 L 605,737 L 606,736 L 607,736 L 608,735 L 609,735 L 610,734 L 611,734 L 612,733 L 614,733 L 615,732 L 616,732 L 617,731 L 618,731 L 619,730 L 620,730 L 621,729 L 622,729 L 623,728 L 624,728 L 625,727 L 626,727 L 627,726 L 628,726 L 629,725 L 630,725 L 631,724 L 632,724 L 633,723 L 635,723 L 636,724 L 637,724 L 639,726 L 640,726 L 642,728 L 643,728 L 645,730 L 646,730 L 648,732 L 649,732 L 651,734 L 652,734 L 654,736 L 655,736 L 657,738 L 658,738 L 661,741 L 662,741 L 665,744 L 666,744 L 667,745 L 668,745 L 669,746 L 670,746 L 671,747 L 674,747 L 675,746 L 677,746 L 678,745 L 679,745 L 680,744 L 681,744 L 683,742 L 684,742 L 686,740 L 687,740 L 690,737 L 691,737 L 694,734 L 695,734 L 700,729 L 701,729 L 707,723 L 708,723 L 722,709 L 722,708 L 729,701 L 729,700 L 733,696 L 733,695 L 737,691 L 737,690 L 742,685 L 742,684 L 745,681 L 745,680 L 748,677 L 748,676 L 750,674 L 750,673 L 751,672 L 751,666 L 749,664 L 749,663 L 748,662 L 748,661 L 747,660 L 747,659 L 745,657 L 745,656 L 744,655 L 744,654 L 742,652 L 742,651 L 740,649 L 740,648 L 737,645 L 737,644 L 734,641 L 734,640 L 731,637 L 731,636 L 729,634 L 729,633 L 727,631 L 727,629 L 728,628 L 728,627 L 729,626 L 729,625 L 730,624 L 730,623 L 731,622 L 731,621 L 732,620 L 732,619 L 733,618 L 733,617 L 734,616 L 734,615 L 735,614 L 735,612 L 736,611 L 736,610 L 737,609 L 737,608 L 738,607 L 738,606 L 739,605 L 739,603 L 740,602 L 740,600 L 741,599 L 741,598 L 742,597 L 742,595 L 743,594 L 743,592 L 744,591 L 744,589 L 745,588 L 745,586 L 746,585 L 746,583 L 747,582 L 747,580 L 748,579 L 748,578 L 749,577 L 749,575 L 750,574 L 750,572 L 751,571 L 751,570 L 752,569 L 752,567 L 753,566 L 753,565 L 755,563 L 759,563 L 760,562 L 764,562 L 765,561 L 769,561 L 770,560 L 774,560 L 775,559 L 779,559 L 780,558 L 783,558 L 784,557 L 787,557 L 788,556 L 790,556 L 791,555 L 792,555 L 793,554 L 794,554 L 796,552 L 797,552 L 798,551 L 798,550 L 799,549 L 799,548 L 800,547 L 800,543 L 801,542 L 801,535 L 802,534 L 802,524 L 803,523 L 803,488 L 802,487 L 802,472 L 801,471 L 801,461 L 800,460 L 800,453 L 799,452 L 799,449 L 798,448 L 798,447 L 797,446 L 797,445 L 796,444 L 795,444 L 794,443 L 793,443 L 792,442 L 790,442 L 789,441 L 785,441 L 784,440 L 781,440 L 780,439 L 774,439 L 773,438 L 767,438 L 766,437 L 762,437 L 761,436 L 756,436 L 755,435 L 751,435 L 749,433 L 749,431 L 748,430 L 748,429 L 747,428 L 747,426 L 746,425 L 746,424 L 745,423 L 745,421 L 744,420 L 744,419 L 743,418 L 743,416 L 742,415 L 742,414 L 741,413 L 741,411 L 740,410 L 740,409 L 739,408 L 739,406 L 738,405 L 738,404 L 737,403 L 737,402 L 736,401 L 736,399 L 734,397 L 734,395 L 733,394 L 733,393 L 732,392 L 732,391 L 731,390 L 731,389 L 730,388 L 730,387 L 729,386 L 729,385 L 728,384 L 728,383 L 727,382 L 727,381 L 726,380 L 726,379 L 725,378 L 725,377 L 724,376 L 724,375 L 723,374 L 723,373 L 722,372 L 724,370 L 724,369 L 727,366 L 727,365 L 730,362 L 730,361 L 732,359 L 732,358 L 735,355 L 735,354 L 738,351 L 738,350 L 740,348 L 740,347 L 742,345 L 742,344 L 744,342 L 744,341 L 746,339 L 746,338 L 748,336 L 748,334 L 749,333 L 748,332 L 748,330 L 747,329 L 747,328 L 746,327 L 746,326 L 744,324 L 744,323 L 720,299 L 719,299 L 709,289 L 708,289 L 702,283 L 701,283 L 696,278 L 695,278 L 690,273 L 689,273 L 685,269 L 684,269 L 681,266 L 680,266 L 678,264 L 677,264 L 676,263 L 675,263 L 674,262 L 673,262 L 672,261 L 666,261 L 665,262 L 664,262 L 662,264 L 661,264 L 656,269 L 655,269 L 650,274 L 649,274 L 645,278 L 644,278 L 640,282 L 639,282 L 636,285 L 635,285 L 634,286 L 622,286 L 621,285 L 620,285 L 620,287 L 621,288 L 621,291 L 622,292 L 622,298 L 623,299 L 623,307 L 624,308 L 624,317 L 625,318 L 625,355 L 626,356 L 627,356 L 633,362 L 634,362 L 651,379 L 651,380 L 656,385 L 656,386 L 659,389 L 659,390 L 662,393 L 662,394 L 664,396 L 664,397 L 666,399 L 666,400 L 668,402 L 668,403 L 670,405 L 670,406 L 671,407 L 671,408 L 673,410 L 673,411 L 674,412 L 674,413 L 675,414 L 675,415 L 676,416 L 676,417 L 677,418 L 677,419 L 678,420 L 678,421 L 679,422 L 679,423 L 680,424 L 680,425 L 681,426 L 681,427 L 682,428 L 682,430 L 683,431 L 683,432 L 684,433 L 684,434 L 685,435 L 685,437 L 686,438 L 686,439 L 687,440 L 687,442 L 688,443 L 688,445 L 689,446 L 689,448 L 690,449 L 690,451 L 691,452 L 691,455 L 692,456 L 692,458 L 693,459 L 693,462 L 694,463 L 694,467 L 695,468 L 695,471 L 696,472 L 696,477 L 697,478 L 697,484 L 698,485 L 698,496 L 699,497 L 699,518 L 698,519 L 698,530 L 697,531 L 697,538 L 696,539 L 696,544 L 695,545 L 695,549 L 694,550 L 694,553 L 693,554 L 693,557 L 692,558 L 692,561 L 691,562 L 691,564 L 690,565 L 690,567 L 689,568 L 689,570 L 688,571 L 688,572 L 687,573 L 687,575 L 686,576 L 686,577 L 685,578 L 685,579 L 684,580 L 684,581 L 683,582 L 683,583 L 682,584 L 682,585 L 681,586 L 681,587 L 680,588 L 680,589 L 679,590 L 679,591 L 678,592 L 678,593 L 676,595 L 676,596 L 675,597 L 675,598 L 674,599 L 674,600 L 672,602 L 672,603 L 670,605 L 670,606 L 668,608 L 668,609 L 667,610 L 667,611 L 664,614 L 664,615 L 661,618 L 661,619 L 656,624 L 656,625 L 647,634 L 647,635 L 640,642 L 639,642 L 630,651 L 629,651 L 625,655 L 624,655 L 621,658 L 620,658 L 618,660 L 617,660 L 615,662 L 614,662 L 613,663 L 612,663 L 610,665 L 609,665 L 608,666 L 607,666 L 606,667 L 605,667 L 603,669 L 602,669 L 601,670 L 600,670 L 599,671 L 598,671 L 597,672 L 596,672 L 595,673 L 594,673 L 593,674 L 592,674 L 591,675 L 589,675 L 588,676 L 587,676 L 586,677 L 585,677 L 584,678 L 582,678 L 581,679 L 579,679 L 578,680 L 576,680 L 575,681 L 573,681 L 572,682 L 571,682 L 570,683 L 569,683 L 569,684 L 568,685 L 568,686 L 567,687 L 567,688 L 566,689 L 566,690 L 565,691 L 565,692 L 564,693 L 564,694 L 563,695 L 563,696 L 561,698 L 561,699 L 559,701 L 559,702 L 557,704 L 557,705 L 555,707 L 555,708 L 551,712 L 551,713 L 547,717 L 547,718 L 537,728 L 537,729 L 530,736 L 529,736 L 523,742 L 522,742 L 520,744 L 519,744 L 518,745 L 517,745 L 516,746 L 514,746 L 513,747 L 510,747 L 509,746 L 507,746 L 506,745 L 505,745 L 504,744 L 503,744 L 501,742 L 500,742 L 484,726 L 484,725 L 477,718 L 477,717 L 473,713 L 473,712 L 470,709 L 470,708 L 468,706 L 468,705 L 466,703 L 466,702 L 464,700 L 464,699 L 463,698 L 463,697 L 461,695 L 461,694 L 460,693 L 460,692 L 459,691 L 459,690 L 457,688 L 457,687 L 454,684 L 453,684 L 452,683 L 450,683 L 449,682 L 447,682 L 446,681 L 444,681 L 443,680 L 442,680 L 441,679 L 440,679 L 439,678 L 437,678 L 436,677 L 435,677 L 434,676 L 433,676 L 432,675 L 431,675 L 430,674 L 429,674 L 428,673 L 427,673 L 426,672 L 425,672 L 424,671 L 423,671 L 421,669 L 420,669 L 419,668 L 418,668 L 417,667 L 416,667 L 414,665 L 413,665 L 411,663 L 410,663 L 409,662 L 408,662 L 406,660 L 405,660 L 402,657 L 401,657 L 399,655 L 398,655 L 394,651 L 393,651 L 387,645 L 386,645 L 373,632 L 373,631 L 366,624 L 366,623 L 363,620 L 363,619 L 360,616 L 360,615 L 357,612 L 357,611 L 355,609 L 355,608 L 354,607 L 354,606 L 352,604 L 352,603 L 350,601 L 350,600 L 349,599 L 349,598 L 348,597 L 348,596 L 347,595 L 347,594 L 346,593 L 346,592 L 345,591 L 345,590 L 344,589 L 344,588 L 343,587 L 343,586 L 342,585 L 342,584 L 341,583 L 341,582 L 340,581 L 340,579 L 339,578 L 339,577 L 338,576 L 338,575 L 337,574 L 337,572 L 336,571 L 336,570 L 335,569 L 335,567 L 334,566 L 334,564 L 333,563 L 333,561 L 332,560 L 332,558 L 331,557 L 331,554 L 330,553 L 330,551 L 329,550 L 329,547 L 328,546 L 328,542 L 327,541 L 327,537 L 326,536 L 326,530 L 325,529 L 325,521 L 324,520 L 324,497 L 325,496 L 325,486 L 326,485 L 326,480 L 327,479 L 327,474 L 328,473 L 328,469 L 329,468 L 329,465 L 330,464 L 330,461 L 331,460 L 331,457 L 332,456 L 332,454 L 333,453 L 333,450 L 334,449 L 334,448 L 335,447 L 335,445 L 336,444 L 336,442 L 337,441 L 337,439 L 338,438 L 338,437 L 339,436 L 339,434 L 340,433 L 340,432 L 341,431 L 341,429 L 342,428 L 342,427 L 343,426 L 343,425 L 344,424 L 344,422 L 345,421 L 345,420 L 346,419 L 346,418 L 347,417 L 347,416 L 348,415 L 348,414 L 349,413 L 349,412 L 350,411 L 350,410 L 352,408 L 352,407 L 353,406 L 353,405 L 355,403 L 355,402 L 356,401 L 356,400 L 358,398 L 358,397 L 360,395 L 360,394 L 364,390 L 364,389 L 368,385 L 368,384 L 388,364 L 389,364 L 394,359 L 395,359 L 398,356 L 398,315 L 399,314 L 399,304 L 400,303 L 400,295 L 401,294 L 401,289 L 402,288 L 402,285 L 403,284 L 401,284 L 400,285 L 396,285 L 395,286 L 388,286 L 385,283 L 384,283 L 381,280 L 380,280 L 376,276 L 375,276 L 371,272 L 370,272 L 366,268 L 365,268 L 362,265 L 361,265 L 359,263 L 358,263 L 357,262 L 356,262 L 355,261 Z" fill="black" /><path d="M 666,259 Z" fill="black" /><path d="M 432,245 Z" fill="black" /><path d="M 437,233 Z" fill="black" /><path d="M 507,150 L 506,151 L 504,151 L 503,152 L 502,152 L 499,155 L 498,155 L 484,169 L 484,170 L 475,179 L 475,180 L 469,186 L 469,187 L 464,192 L 464,193 L 461,196 L 461,197 L 459,199 L 459,200 L 457,202 L 457,203 L 455,205 L 455,206 L 453,208 L 453,209 L 452,210 L 452,211 L 451,212 L 451,213 L 449,215 L 449,216 L 447,218 L 447,219 L 446,220 L 446,221 L 445,222 L 445,223 L 443,225 L 443,226 L 442,227 L 442,228 L 441,229 L 441,230 L 440,231 L 440,232 L 439,233 L 439,234 L 438,235 L 438,237 L 437,238 L 437,239 L 436,240 L 436,242 L 435,243 L 435,244 L 434,245 L 434,247 L 433,248 L 433,250 L 432,251 L 432,253 L 431,254 L 431,256 L 430,257 L 430,259 L 429,260 L 429,262 L 428,263 L 428,266 L 427,267 L 427,269 L 426,270 L 426,273 L 425,274 L 425,278 L 424,279 L 424,284 L 423,285 L 423,294 L 422,295 L 422,303 L 421,304 L 421,314 L 420,315 L 420,358 L 421,359 L 421,378 L 422,379 L 422,389 L 423,390 L 423,404 L 424,405 L 424,416 L 423,417 L 423,418 L 416,425 L 416,426 L 410,432 L 410,433 L 405,438 L 405,439 L 400,444 L 400,445 L 394,451 L 394,452 L 389,457 L 389,458 L 386,461 L 386,462 L 384,464 L 384,465 L 383,466 L 383,467 L 382,468 L 382,471 L 381,472 L 381,549 L 380,550 L 380,571 L 381,572 L 381,575 L 382,576 L 382,577 L 383,578 L 383,579 L 385,581 L 386,581 L 387,582 L 392,582 L 393,581 L 394,581 L 395,580 L 396,580 L 398,578 L 399,578 L 401,576 L 402,576 L 406,572 L 407,572 L 410,569 L 411,569 L 414,566 L 415,566 L 417,564 L 418,564 L 420,562 L 421,562 L 423,560 L 424,560 L 426,558 L 427,558 L 429,556 L 430,556 L 432,554 L 433,554 L 436,551 L 437,551 L 439,549 L 440,549 L 441,548 L 442,548 L 444,546 L 445,546 L 447,544 L 448,544 L 450,542 L 451,542 L 452,541 L 453,541 L 455,539 L 456,539 L 458,537 L 459,537 L 461,535 L 463,537 L 463,538 L 464,539 L 464,540 L 466,542 L 466,543 L 467,544 L 467,545 L 468,546 L 468,547 L 469,548 L 469,549 L 470,550 L 470,551 L 471,552 L 471,553 L 476,558 L 479,558 L 480,559 L 551,559 L 551,556 L 552,555 L 552,552 L 553,551 L 553,549 L 554,548 L 554,547 L 555,546 L 555,544 L 556,543 L 556,542 L 557,541 L 557,540 L 560,537 L 561,537 L 562,538 L 563,538 L 564,539 L 565,539 L 567,541 L 568,541 L 569,542 L 570,542 L 572,544 L 573,544 L 575,546 L 576,546 L 577,547 L 578,547 L 580,549 L 581,549 L 583,551 L 584,551 L 586,553 L 587,553 L 589,555 L 590,555 L 592,557 L 593,557 L 595,559 L 596,559 L 597,560 L 598,560 L 600,562 L 601,562 L 603,564 L 604,564 L 606,566 L 607,566 L 609,568 L 610,568 L 613,571 L 614,571 L 617,574 L 618,574 L 621,577 L 622,577 L 624,579 L 625,579 L 626,580 L 627,580 L 628,581 L 629,581 L 630,582 L 636,582 L 637,581 L 638,581 L 640,579 L 640,578 L 641,577 L 641,576 L 642,575 L 642,573 L 643,572 L 643,548 L 642,547 L 642,481 L 641,480 L 641,471 L 640,470 L 640,466 L 639,465 L 639,464 L 636,461 L 636,460 L 632,456 L 632,455 L 625,448 L 625,447 L 619,441 L 619,440 L 613,434 L 613,433 L 607,427 L 607,426 L 600,419 L 600,418 L 599,417 L 599,413 L 600,412 L 600,407 L 601,406 L 601,399 L 602,398 L 602,386 L 603,385 L 603,343 L 604,342 L 604,335 L 603,334 L 603,320 L 602,319 L 602,311 L 601,310 L 601,303 L 600,302 L 600,296 L 599,295 L 599,291 L 598,290 L 598,285 L 597,284 L 597,280 L 596,279 L 596,275 L 595,274 L 595,270 L 594,269 L 594,266 L 593,265 L 593,262 L 592,261 L 592,258 L 591,257 L 591,255 L 590,254 L 590,252 L 589,251 L 589,249 L 588,248 L 588,246 L 587,245 L 587,243 L 586,242 L 586,240 L 585,239 L 585,238 L 584,237 L 584,235 L 583,234 L 583,233 L 582,232 L 582,231 L 581,230 L 581,229 L 580,228 L 580,227 L 579,226 L 579,224 L 577,222 L 577,221 L 576,220 L 576,219 L 575,218 L 575,217 L 574,216 L 574,215 L 573,214 L 573,213 L 571,211 L 571,210 L 569,208 L 569,207 L 567,205 L 567,204 L 565,202 L 565,201 L 563,199 L 563,198 L 561,196 L 561,195 L 557,191 L 557,190 L 554,187 L 554,186 L 548,180 L 548,179 L 533,164 L 532,164 L 527,159 L 526,159 L 524,157 L 523,157 L 521,155 L 520,155 L 518,153 L 517,153 L 516,152 L 515,152 L 514,151 L 512,151 L 511,150 Z" fill="black" /></svg>