<?xml version="1.0" encoding="utf-8" ?>
<svg baseProfile="full" height="1024px" version="1.1" width="1024px" xmlns="http://www.w3.org/2000/svg" xmlns:ev="http://www.w3.org/2001/xml-events" xmlns:xlink="http://www.w3.org/1999/xlink"><defs /><path d="M 224,251 L 223,252 L 221,252 L 220,253 L 219,253 L 218,254 L 217,254 L 216,255 L 215,255 L 213,257 L 212,257 L 209,260 L 209,261 L 207,263 L 207,264 L 206,265 L 206,267 L 205,268 L 205,272 L 204,273 L 204,305 L 203,306 L 162,306 L 161,307 L 159,307 L 157,309 L 156,309 L 153,312 L 153,313 L 151,315 L 151,316 L 150,317 L 150,761 L 151,762 L 151,764 L 152,765 L 152,766 L 158,772 L 159,772 L 160,773 L 161,773 L 162,774 L 164,774 L 165,775 L 455,775 L 462,782 L 462,783 L 467,788 L 468,788 L 471,791 L 472,791 L 473,792 L 474,792 L 475,793 L 477,793 L 478,794 L 480,794 L 481,795 L 542,795 L 543,794 L 545,794 L 546,793 L 547,793 L 548,792 L 549,792 L 550,791 L 551,791 L 552,790 L 553,790 L 557,786 L 558,786 L 559,785 L 559,784 L 563,780 L 563,779 L 566,776 L 853,776 L 854,775 L 860,775 L 861,774 L 863,774 L 865,772 L 866,772 L 871,767 L 871,766 L 872,765 L 872,764 L 873,763 L 873,317 L 872,316 L 872,315 L 871,314 L 871,313 L 866,308 L 865,308 L 864,307 L 862,307 L 861,306 L 820,306 L 819,305 L 819,289 L 818,288 L 818,272 L 817,271 L 817,267 L 816,266 L 816,265 L 815,264 L 815,263 L 813,261 L 813,260 L 810,257 L 809,257 L 807,255 L 806,255 L 805,254 L 804,254 L 803,253 L 801,253 L 800,252 L 798,252 L 797,251 L 582,251 L 581,252 L 575,252 L 574,253 L 570,253 L 569,254 L 566,254 L 565,255 L 562,255 L 561,256 L 559,256 L 558,257 L 556,257 L 555,258 L 553,258 L 552,259 L 551,259 L 550,260 L 548,260 L 547,261 L 546,261 L 545,262 L 544,262 L 543,263 L 542,263 L 541,264 L 540,264 L 538,266 L 537,266 L 536,267 L 535,267 L 533,269 L 532,269 L 531,270 L 530,270 L 527,273 L 526,273 L 520,279 L 519,279 L 512,286 L 512,287 L 511,288 L 507,284 L 507,283 L 506,283 L 505,282 L 505,281 L 504,280 L 503,280 L 497,274 L 496,274 L 493,271 L 492,271 L 490,269 L 489,269 L 487,267 L 486,267 L 484,265 L 483,265 L 482,264 L 481,264 L 480,263 L 479,263 L 478,262 L 477,262 L 476,261 L 475,261 L 474,260 L 473,260 L 472,259 L 470,259 L 469,258 L 468,258 L 467,257 L 465,257 L 464,256 L 462,256 L 461,255 L 458,255 L 457,254 L 454,254 L 453,253 L 449,253 L 448,252 L 442,252 L 441,251 Z" fill="black" /></svg>