<?xml version="1.0" encoding="utf-8" ?>
<svg baseProfile="full" height="1024px" version="1.1" width="1024px" xmlns="http://www.w3.org/2000/svg" xmlns:ev="http://www.w3.org/2001/xml-events" xmlns:xlink="http://www.w3.org/1999/xlink"><defs /><path d="M 332,516 L 331,517 L 329,517 L 328,518 L 327,518 L 326,519 L 325,519 L 320,524 L 320,525 L 319,526 L 319,527 L 318,528 L 318,529 L 317,530 L 317,543 L 318,544 L 318,545 L 319,546 L 319,547 L 320,548 L 320,549 L 324,553 L 325,553 L 327,555 L 328,555 L 329,556 L 331,556 L 332,557 L 482,557 L 483,556 L 485,556 L 486,555 L 488,555 L 489,554 L 490,554 L 491,553 L 492,553 L 495,550 L 496,550 L 500,546 L 500,545 L 503,542 L 503,541 L 504,540 L 504,539 L 506,537 L 506,535 L 507,534 L 507,525 L 506,524 L 506,523 L 505,522 L 505,521 L 502,518 L 501,518 L 500,517 L 499,517 L 498,516 Z" fill="black" /><path d="M 656,498 L 655,499 L 625,499 L 624,500 L 622,500 L 617,505 L 617,507 L 616,508 L 616,510 L 615,511 L 615,520 L 614,521 L 614,536 L 612,538 L 611,538 L 610,539 L 608,539 L 607,540 L 605,540 L 604,541 L 602,541 L 601,542 L 599,542 L 598,543 L 597,543 L 596,544 L 595,544 L 594,545 L 592,545 L 590,547 L 589,547 L 588,548 L 587,548 L 586,549 L 585,549 L 584,550 L 583,550 L 575,542 L 574,542 L 572,540 L 571,540 L 568,537 L 567,537 L 565,535 L 564,535 L 562,533 L 561,533 L 560,532 L 559,532 L 558,531 L 552,531 L 551,532 L 549,532 L 547,534 L 546,534 L 521,559 L 521,560 L 520,561 L 520,562 L 518,564 L 518,566 L 517,567 L 517,569 L 516,570 L 516,574 L 517,575 L 517,577 L 519,579 L 519,580 L 520,581 L 520,582 L 523,585 L 523,586 L 527,590 L 527,591 L 528,591 L 529,592 L 529,593 L 534,598 L 534,600 L 533,601 L 533,602 L 531,604 L 531,605 L 530,606 L 530,607 L 529,608 L 529,610 L 528,611 L 528,613 L 527,614 L 527,615 L 526,616 L 526,618 L 525,619 L 525,621 L 524,622 L 524,625 L 523,626 L 523,627 L 521,629 L 507,629 L 506,630 L 498,630 L 497,631 L 494,631 L 493,632 L 492,632 L 487,637 L 487,638 L 486,639 L 486,641 L 485,642 L 485,673 L 486,674 L 486,682 L 487,683 L 487,684 L 488,685 L 488,686 L 489,687 L 490,687 L 492,689 L 494,689 L 495,690 L 498,690 L 499,691 L 506,691 L 507,692 L 516,692 L 517,693 L 521,693 L 523,695 L 523,699 L 524,700 L 524,703 L 525,704 L 525,706 L 526,707 L 526,709 L 527,710 L 527,712 L 528,713 L 528,714 L 529,715 L 529,717 L 530,718 L 530,719 L 531,720 L 531,721 L 532,722 L 532,723 L 533,724 L 533,725 L 534,726 L 530,730 L 530,731 L 523,738 L 523,739 L 519,743 L 519,744 L 517,746 L 517,748 L 516,749 L 516,756 L 517,757 L 517,758 L 518,759 L 518,760 L 519,761 L 519,762 L 523,766 L 523,767 L 542,786 L 543,786 L 546,789 L 547,789 L 549,791 L 551,791 L 552,792 L 558,792 L 559,791 L 560,791 L 561,790 L 562,790 L 563,789 L 564,789 L 567,786 L 568,786 L 572,782 L 573,782 L 578,777 L 579,777 L 582,774 L 585,774 L 587,776 L 588,776 L 589,777 L 590,777 L 591,778 L 592,778 L 593,779 L 594,779 L 595,780 L 596,780 L 597,781 L 599,781 L 600,782 L 601,782 L 602,783 L 604,783 L 605,784 L 608,784 L 609,785 L 612,785 L 614,787 L 614,801 L 615,802 L 615,811 L 616,812 L 616,814 L 617,815 L 617,816 L 618,817 L 618,818 L 620,820 L 621,820 L 623,822 L 625,822 L 626,823 L 669,823 L 670,822 L 671,822 L 673,820 L 674,820 L 676,818 L 676,817 L 678,815 L 678,813 L 679,812 L 679,804 L 680,803 L 680,787 L 682,785 L 684,785 L 685,784 L 687,784 L 688,783 L 691,783 L 692,782 L 694,782 L 695,781 L 696,781 L 697,780 L 699,780 L 700,779 L 701,779 L 702,778 L 703,778 L 704,777 L 705,777 L 706,776 L 707,776 L 708,775 L 711,775 L 714,778 L 715,778 L 719,782 L 720,782 L 724,786 L 725,786 L 728,789 L 729,789 L 730,790 L 731,790 L 733,792 L 735,792 L 736,793 L 742,793 L 743,792 L 744,792 L 746,790 L 747,790 L 757,780 L 758,780 L 760,778 L 760,777 L 773,764 L 773,763 L 776,760 L 776,759 L 777,758 L 777,756 L 778,755 L 778,750 L 777,749 L 777,747 L 775,745 L 775,744 L 772,741 L 772,740 L 766,734 L 766,733 L 759,726 L 759,724 L 760,723 L 760,722 L 761,721 L 761,720 L 762,719 L 762,718 L 763,717 L 763,716 L 764,715 L 764,714 L 765,713 L 765,711 L 766,710 L 766,708 L 767,707 L 767,706 L 768,705 L 768,702 L 769,701 L 769,698 L 770,697 L 770,695 L 772,693 L 779,693 L 780,692 L 785,692 L 786,691 L 794,691 L 795,690 L 799,690 L 800,689 L 801,689 L 802,688 L 803,688 L 804,687 L 805,687 L 808,684 L 808,682 L 809,681 L 809,640 L 808,639 L 808,638 L 807,637 L 807,636 L 804,633 L 803,633 L 801,631 L 798,631 L 797,630 L 788,630 L 787,629 L 772,629 L 770,627 L 770,625 L 769,624 L 769,622 L 768,621 L 768,619 L 767,618 L 767,616 L 766,615 L 766,613 L 765,612 L 765,611 L 764,610 L 764,608 L 763,607 L 763,606 L 762,605 L 762,604 L 761,603 L 761,602 L 760,601 L 760,600 L 759,599 L 759,598 L 767,590 L 767,589 L 771,585 L 771,584 L 773,582 L 773,581 L 775,579 L 775,578 L 777,576 L 777,575 L 778,574 L 778,568 L 777,567 L 777,566 L 776,565 L 776,564 L 773,561 L 773,560 L 770,557 L 770,556 L 748,534 L 747,534 L 745,532 L 744,532 L 743,531 L 735,531 L 734,532 L 733,532 L 732,533 L 731,533 L 730,534 L 729,534 L 727,536 L 726,536 L 722,540 L 721,540 L 714,547 L 713,547 L 710,550 L 709,549 L 708,549 L 707,548 L 706,548 L 705,547 L 704,547 L 703,546 L 702,546 L 701,545 L 700,545 L 699,544 L 698,544 L 697,543 L 695,543 L 694,542 L 693,542 L 692,541 L 690,541 L 689,540 L 687,540 L 686,539 L 684,539 L 683,538 L 682,538 L 680,536 L 681,535 L 680,534 L 680,520 L 679,519 L 679,510 L 678,509 L 678,507 L 677,506 L 677,505 L 672,500 L 671,500 L 670,499 L 667,499 L 666,498 Z" fill="black" /><path d="M 331,429 L 330,430 L 328,430 L 326,432 L 325,432 L 320,437 L 320,438 L 319,439 L 319,440 L 318,441 L 318,442 L 317,443 L 317,448 L 316,449 L 316,451 L 317,452 L 317,456 L 318,457 L 318,459 L 319,460 L 319,461 L 322,464 L 322,465 L 323,465 L 326,468 L 328,468 L 329,469 L 332,469 L 333,470 L 569,470 L 570,469 L 589,469 L 590,468 L 593,468 L 594,467 L 595,467 L 597,465 L 598,465 L 601,462 L 601,461 L 603,459 L 603,458 L 604,457 L 604,455 L 605,454 L 605,442 L 604,441 L 604,439 L 603,438 L 603,437 L 598,432 L 597,432 L 596,431 L 595,431 L 594,430 L 593,430 L 592,429 Z" fill="black" /><path d="M 331,341 L 330,342 L 328,342 L 326,344 L 325,344 L 320,349 L 320,350 L 319,351 L 319,352 L 318,353 L 318,354 L 317,355 L 317,367 L 318,368 L 318,370 L 319,371 L 319,372 L 322,375 L 322,376 L 323,376 L 325,378 L 326,378 L 327,379 L 328,379 L 329,380 L 331,380 L 332,381 L 343,381 L 344,382 L 485,382 L 486,381 L 495,381 L 496,380 L 498,380 L 500,378 L 501,378 L 505,374 L 505,373 L 506,372 L 506,371 L 507,370 L 507,369 L 508,368 L 508,355 L 507,354 L 507,352 L 506,351 L 506,350 L 505,349 L 505,348 L 501,344 L 500,344 L 498,342 L 496,342 L 495,341 Z" fill="black" /><path d="M 275,179 L 274,180 L 270,180 L 269,181 L 267,181 L 266,182 L 264,182 L 263,183 L 261,183 L 260,184 L 258,184 L 257,185 L 256,185 L 255,186 L 254,186 L 253,187 L 252,187 L 250,189 L 249,189 L 246,192 L 245,192 L 235,202 L 235,203 L 232,206 L 232,207 L 231,208 L 231,209 L 229,211 L 229,212 L 228,213 L 228,214 L 227,215 L 227,217 L 226,218 L 226,219 L 225,220 L 225,222 L 224,223 L 224,226 L 223,227 L 223,231 L 222,232 L 222,788 L 223,789 L 223,792 L 224,793 L 224,796 L 225,797 L 225,799 L 226,800 L 226,801 L 227,802 L 227,804 L 228,805 L 228,806 L 230,808 L 230,809 L 231,810 L 231,811 L 232,812 L 232,813 L 234,815 L 234,816 L 246,828 L 247,828 L 249,830 L 250,830 L 251,831 L 252,831 L 254,833 L 256,833 L 257,834 L 258,834 L 259,835 L 260,835 L 261,836 L 263,836 L 264,837 L 266,837 L 267,838 L 269,838 L 270,839 L 275,839 L 276,840 L 530,840 L 531,839 L 532,839 L 535,836 L 535,835 L 536,834 L 536,826 L 535,825 L 535,824 L 533,822 L 532,822 L 528,818 L 527,818 L 524,815 L 523,815 L 519,811 L 518,811 L 514,807 L 513,807 L 510,804 L 509,804 L 506,801 L 505,801 L 504,800 L 503,800 L 502,799 L 279,799 L 278,798 L 276,798 L 275,797 L 274,797 L 272,795 L 271,795 L 267,791 L 267,790 L 265,788 L 265,787 L 264,786 L 264,784 L 263,783 L 263,778 L 262,777 L 262,474 L 263,473 L 263,472 L 262,471 L 262,464 L 263,463 L 262,462 L 263,461 L 263,460 L 262,459 L 262,458 L 263,457 L 262,456 L 263,455 L 263,453 L 262,452 L 262,451 L 263,450 L 262,449 L 262,445 L 263,444 L 262,443 L 262,439 L 263,438 L 263,432 L 262,431 L 262,426 L 263,425 L 262,424 L 262,413 L 263,412 L 262,411 L 262,406 L 263,405 L 263,237 L 264,236 L 264,234 L 265,233 L 265,232 L 267,230 L 267,229 L 271,225 L 272,225 L 274,223 L 275,223 L 276,222 L 278,222 L 279,221 L 534,221 L 535,220 L 538,220 L 539,221 L 540,220 L 553,220 L 554,221 L 554,328 L 555,329 L 555,333 L 556,334 L 556,336 L 557,337 L 557,339 L 558,340 L 558,342 L 559,343 L 559,344 L 560,345 L 560,346 L 561,347 L 561,348 L 563,350 L 563,351 L 564,352 L 564,353 L 567,356 L 567,357 L 579,369 L 580,369 L 583,372 L 584,372 L 586,374 L 587,374 L 588,375 L 589,375 L 590,376 L 591,376 L 592,377 L 593,377 L 594,378 L 596,378 L 597,379 L 600,379 L 601,380 L 606,380 L 607,381 L 618,381 L 619,382 L 713,382 L 714,383 L 714,469 L 715,470 L 715,471 L 716,472 L 717,472 L 718,473 L 719,473 L 720,474 L 722,474 L 723,475 L 725,475 L 726,476 L 729,476 L 730,477 L 732,477 L 733,478 L 735,478 L 736,479 L 738,479 L 739,480 L 742,480 L 743,481 L 745,481 L 746,482 L 750,482 L 751,481 L 752,481 L 752,480 L 753,479 L 753,476 L 754,475 L 754,363 L 753,362 L 753,356 L 752,355 L 752,352 L 751,351 L 751,349 L 750,348 L 750,346 L 749,345 L 749,344 L 748,343 L 748,342 L 746,340 L 746,339 L 744,337 L 744,336 L 738,330 L 738,329 L 716,307 L 716,306 L 715,306 L 711,302 L 711,301 L 668,258 L 668,257 L 619,208 L 619,207 L 605,193 L 604,193 L 601,190 L 600,190 L 598,188 L 597,188 L 596,187 L 595,187 L 594,186 L 593,186 L 592,185 L 591,185 L 590,184 L 589,184 L 588,183 L 586,183 L 585,182 L 584,182 L 583,181 L 580,181 L 579,180 L 576,180 L 575,179 Z" fill="black" /></svg>