<?xml version="1.0" encoding="utf-8" ?>
<svg baseProfile="full" height="1024px" version="1.1" width="1024px" xmlns="http://www.w3.org/2000/svg" xmlns:ev="http://www.w3.org/2001/xml-events" xmlns:xlink="http://www.w3.org/1999/xlink"><defs /><path d="M 500,189 L 499,190 L 489,190 L 488,191 L 482,191 L 481,192 L 477,192 L 476,193 L 472,193 L 471,194 L 467,194 L 466,195 L 463,195 L 462,196 L 459,196 L 458,197 L 456,197 L 455,198 L 452,198 L 451,199 L 449,199 L 448,200 L 446,200 L 445,201 L 444,201 L 443,202 L 441,202 L 440,203 L 439,203 L 438,204 L 436,204 L 435,205 L 434,205 L 433,206 L 432,206 L 431,207 L 430,207 L 429,208 L 428,208 L 427,209 L 426,209 L 425,210 L 424,210 L 423,211 L 422,211 L 420,213 L 419,213 L 418,214 L 417,214 L 416,215 L 415,215 L 413,217 L 412,217 L 410,219 L 409,219 L 407,221 L 406,221 L 404,223 L 403,223 L 400,226 L 399,226 L 396,229 L 395,229 L 392,232 L 391,232 L 385,238 L 384,238 L 373,249 L 373,250 L 367,256 L 367,257 L 364,260 L 364,261 L 362,263 L 362,264 L 360,266 L 360,267 L 359,268 L 359,269 L 357,271 L 357,272 L 355,274 L 355,275 L 354,276 L 354,277 L 352,279 L 352,280 L 351,281 L 351,282 L 350,283 L 350,284 L 348,286 L 348,287 L 347,288 L 347,289 L 346,290 L 346,291 L 345,292 L 345,293 L 344,294 L 344,295 L 343,296 L 343,298 L 342,299 L 342,300 L 341,301 L 341,302 L 340,303 L 340,305 L 339,306 L 339,307 L 338,308 L 338,310 L 337,311 L 337,313 L 336,314 L 336,316 L 335,317 L 335,319 L 334,320 L 334,323 L 333,324 L 333,326 L 332,327 L 332,331 L 331,332 L 331,336 L 330,337 L 330,341 L 329,342 L 329,351 L 328,352 L 328,439 L 327,440 L 320,440 L 319,441 L 315,441 L 314,442 L 311,442 L 310,443 L 308,443 L 307,444 L 305,444 L 304,445 L 303,445 L 302,446 L 301,446 L 300,447 L 298,447 L 297,448 L 296,448 L 295,449 L 294,449 L 292,451 L 291,451 L 289,453 L 288,453 L 277,464 L 277,465 L 274,468 L 274,469 L 272,471 L 272,472 L 271,473 L 271,474 L 270,475 L 270,476 L 269,477 L 269,478 L 268,479 L 268,480 L 267,481 L 267,482 L 266,483 L 266,485 L 265,486 L 265,489 L 264,490 L 264,495 L 263,496 L 263,737 L 262,738 L 262,756 L 263,757 L 263,762 L 264,763 L 264,766 L 265,767 L 265,769 L 266,770 L 266,772 L 267,773 L 267,774 L 268,775 L 268,777 L 269,778 L 269,779 L 271,781 L 271,782 L 272,783 L 272,784 L 274,786 L 274,787 L 276,789 L 276,790 L 289,803 L 290,803 L 292,805 L 293,805 L 295,807 L 296,807 L 297,808 L 298,808 L 299,809 L 300,809 L 301,810 L 302,810 L 303,811 L 304,811 L 305,812 L 307,812 L 308,813 L 310,813 L 311,814 L 314,814 L 315,815 L 320,815 L 321,816 L 703,816 L 704,815 L 709,815 L 710,814 L 712,814 L 713,813 L 715,813 L 716,812 L 718,812 L 719,811 L 720,811 L 721,810 L 723,810 L 725,808 L 726,808 L 727,807 L 728,807 L 730,805 L 731,805 L 733,803 L 734,803 L 747,790 L 747,789 L 750,786 L 750,785 L 751,784 L 751,783 L 753,781 L 753,780 L 754,779 L 754,778 L 755,777 L 755,775 L 756,774 L 756,773 L 757,772 L 757,770 L 758,769 L 758,766 L 759,765 L 759,762 L 760,761 L 760,497 L 759,496 L 759,491 L 758,490 L 758,487 L 757,486 L 757,484 L 756,483 L 756,481 L 755,480 L 755,479 L 754,478 L 754,477 L 753,476 L 753,474 L 751,472 L 751,471 L 750,470 L 750,469 L 748,467 L 748,466 L 744,462 L 744,461 L 742,459 L 741,459 L 735,453 L 734,453 L 732,451 L 731,451 L 730,450 L 729,450 L 728,449 L 727,449 L 725,447 L 724,447 L 723,446 L 721,446 L 720,445 L 719,445 L 718,444 L 716,444 L 715,443 L 713,443 L 712,442 L 708,442 L 707,441 L 703,441 L 702,440 L 696,440 L 695,439 L 695,352 L 694,351 L 694,344 L 693,343 L 693,337 L 692,336 L 692,332 L 691,331 L 691,327 L 690,326 L 690,323 L 689,322 L 689,320 L 688,319 L 688,317 L 687,316 L 687,314 L 686,313 L 686,311 L 685,310 L 685,308 L 684,307 L 684,306 L 683,305 L 683,303 L 682,302 L 682,301 L 681,300 L 681,299 L 680,298 L 680,297 L 679,296 L 679,295 L 678,294 L 678,293 L 677,292 L 677,291 L 676,290 L 676,289 L 675,288 L 675,287 L 674,286 L 674,285 L 673,284 L 673,283 L 671,281 L 671,280 L 670,279 L 670,278 L 669,277 L 669,276 L 667,274 L 667,273 L 665,271 L 665,270 L 663,268 L 663,267 L 660,264 L 660,263 L 657,260 L 657,259 L 653,255 L 653,254 L 635,236 L 634,236 L 629,231 L 628,231 L 624,227 L 623,227 L 620,224 L 619,224 L 617,222 L 616,222 L 613,219 L 612,219 L 610,217 L 609,217 L 607,215 L 606,215 L 605,214 L 604,214 L 602,212 L 601,212 L 600,211 L 599,211 L 598,210 L 597,210 L 596,209 L 595,209 L 594,208 L 593,208 L 592,207 L 591,207 L 590,206 L 589,206 L 588,205 L 587,205 L 586,204 L 584,204 L 583,203 L 582,203 L 581,202 L 579,202 L 578,201 L 576,201 L 575,200 L 573,200 L 572,199 L 570,199 L 569,198 L 567,198 L 566,197 L 564,197 L 563,196 L 560,196 L 559,195 L 556,195 L 555,194 L 552,194 L 551,193 L 546,193 L 545,192 L 541,192 L 540,191 L 532,191 L 531,190 L 522,190 L 521,189 Z" fill="black" /></svg>