<?xml version="1.0" encoding="utf-8" ?>
<svg baseProfile="full" height="1024px" version="1.1" width="1024px" xmlns="http://www.w3.org/2000/svg" xmlns:ev="http://www.w3.org/2001/xml-events" xmlns:xlink="http://www.w3.org/1999/xlink"><defs /><path d="M 215,396 Z" fill="black" /><path d="M 476,169 L 475,170 L 471,170 L 470,171 L 468,171 L 467,172 L 465,172 L 464,173 L 463,173 L 461,175 L 460,175 L 458,177 L 457,177 L 453,181 L 452,181 L 447,186 L 447,187 L 443,191 L 443,192 L 441,194 L 441,195 L 439,197 L 439,199 L 438,200 L 438,202 L 437,203 L 437,213 L 436,214 L 401,214 L 400,215 L 398,215 L 397,216 L 395,216 L 394,217 L 391,217 L 390,218 L 389,218 L 388,219 L 386,219 L 385,220 L 384,220 L 378,226 L 378,227 L 376,229 L 376,230 L 374,232 L 304,232 L 303,233 L 299,233 L 298,234 L 294,234 L 293,235 L 291,235 L 290,236 L 289,236 L 288,237 L 286,237 L 285,238 L 284,238 L 283,239 L 282,239 L 281,240 L 280,240 L 278,242 L 277,242 L 275,244 L 274,244 L 269,249 L 268,249 L 265,252 L 265,253 L 261,257 L 261,258 L 259,260 L 259,261 L 257,263 L 257,264 L 256,265 L 256,266 L 255,267 L 255,268 L 254,269 L 254,270 L 253,271 L 253,272 L 252,273 L 252,275 L 251,276 L 251,278 L 250,279 L 250,282 L 249,283 L 249,286 L 248,287 L 248,291 L 247,292 L 247,790 L 248,791 L 248,796 L 249,797 L 249,802 L 250,803 L 250,805 L 251,806 L 251,809 L 252,810 L 252,811 L 253,812 L 253,814 L 254,815 L 254,816 L 255,817 L 255,818 L 257,820 L 257,821 L 258,822 L 258,823 L 260,825 L 260,826 L 264,830 L 264,831 L 271,838 L 272,838 L 275,841 L 276,841 L 278,843 L 279,843 L 280,844 L 281,844 L 283,846 L 284,846 L 285,847 L 287,847 L 288,848 L 289,848 L 290,849 L 292,849 L 293,850 L 295,850 L 296,851 L 299,851 L 300,852 L 306,852 L 307,853 L 716,853 L 717,852 L 722,852 L 723,851 L 726,851 L 727,850 L 729,850 L 730,849 L 732,849 L 733,848 L 735,848 L 736,847 L 737,847 L 738,846 L 739,846 L 740,845 L 741,845 L 742,844 L 743,844 L 744,843 L 745,843 L 747,841 L 748,841 L 751,838 L 752,838 L 762,828 L 762,827 L 764,825 L 764,824 L 766,822 L 766,821 L 767,820 L 767,819 L 768,818 L 768,817 L 769,816 L 769,815 L 770,814 L 770,813 L 771,812 L 771,810 L 772,809 L 772,808 L 773,807 L 773,803 L 774,802 L 774,798 L 775,797 L 775,288 L 774,287 L 774,283 L 773,282 L 773,279 L 772,278 L 772,276 L 771,275 L 771,273 L 770,272 L 770,271 L 769,270 L 769,269 L 768,268 L 768,267 L 767,266 L 767,265 L 766,264 L 766,263 L 764,261 L 764,260 L 762,258 L 762,257 L 750,245 L 749,245 L 747,243 L 746,243 L 744,241 L 743,241 L 742,240 L 741,240 L 740,239 L 739,239 L 738,238 L 737,238 L 736,237 L 735,237 L 734,236 L 732,236 L 731,235 L 729,235 L 728,234 L 725,234 L 724,233 L 718,233 L 717,232 L 649,232 L 647,230 L 647,229 L 646,228 L 646,227 L 643,224 L 643,223 L 642,223 L 639,220 L 638,220 L 637,219 L 636,219 L 635,218 L 633,218 L 632,217 L 630,217 L 629,216 L 626,216 L 625,215 L 623,215 L 622,214 L 587,214 L 586,213 L 586,202 L 585,201 L 585,199 L 584,198 L 584,196 L 582,194 L 582,193 L 579,190 L 579,189 L 567,177 L 566,177 L 564,175 L 563,175 L 562,174 L 561,174 L 560,173 L 559,173 L 558,172 L 557,172 L 556,171 L 553,171 L 552,170 L 549,170 L 548,169 Z" fill="black" /></svg>