<?xml version="1.0" encoding="utf-8" ?>
<svg baseProfile="full" height="1024px" version="1.1" width="1024px" xmlns="http://www.w3.org/2000/svg" xmlns:ev="http://www.w3.org/2001/xml-events" xmlns:xlink="http://www.w3.org/1999/xlink"><defs /><path d="M 218,213 L 217,214 L 213,214 L 212,215 L 210,215 L 209,216 L 207,216 L 206,217 L 205,217 L 204,218 L 203,218 L 202,219 L 201,219 L 200,220 L 199,220 L 196,223 L 195,223 L 189,229 L 189,230 L 186,233 L 186,234 L 185,235 L 185,236 L 184,237 L 184,238 L 183,239 L 183,240 L 182,241 L 182,242 L 181,243 L 181,245 L 180,246 L 180,250 L 179,251 L 179,658 L 180,659 L 180,662 L 181,663 L 181,666 L 182,667 L 182,669 L 183,670 L 183,671 L 184,672 L 184,673 L 186,675 L 186,676 L 188,678 L 188,679 L 197,688 L 198,688 L 200,690 L 201,690 L 202,691 L 203,691 L 205,693 L 207,693 L 208,694 L 209,694 L 210,695 L 212,695 L 213,696 L 216,696 L 217,697 L 417,697 L 418,698 L 419,698 L 421,700 L 421,705 L 420,706 L 420,710 L 419,711 L 419,714 L 418,715 L 418,720 L 417,721 L 417,724 L 416,725 L 416,729 L 415,730 L 415,734 L 414,735 L 414,739 L 413,740 L 413,744 L 412,745 L 412,749 L 411,750 L 411,754 L 410,755 L 410,759 L 409,760 L 409,764 L 408,765 L 408,769 L 407,770 L 407,772 L 405,774 L 373,774 L 372,775 L 367,775 L 366,776 L 365,776 L 364,777 L 363,777 L 362,778 L 361,778 L 356,783 L 356,785 L 355,786 L 355,809 L 358,812 L 359,812 L 360,813 L 661,813 L 662,812 L 663,812 L 664,811 L 665,811 L 667,809 L 667,808 L 668,807 L 668,785 L 667,784 L 667,783 L 664,780 L 663,780 L 661,778 L 660,778 L 659,777 L 658,777 L 657,776 L 655,776 L 654,775 L 650,775 L 649,774 L 619,774 L 617,772 L 617,770 L 616,769 L 616,765 L 615,764 L 615,760 L 614,759 L 614,755 L 613,754 L 613,750 L 612,749 L 612,745 L 611,744 L 611,740 L 610,739 L 610,735 L 609,734 L 609,730 L 608,729 L 608,724 L 607,723 L 607,720 L 606,719 L 606,715 L 605,714 L 605,710 L 604,709 L 604,705 L 603,704 L 603,701 L 604,700 L 604,699 L 605,698 L 606,698 L 607,697 L 805,697 L 806,696 L 810,696 L 811,695 L 813,695 L 814,694 L 815,694 L 816,693 L 818,693 L 820,691 L 821,691 L 822,690 L 823,690 L 825,688 L 826,688 L 835,679 L 835,678 L 837,676 L 837,675 L 838,674 L 838,673 L 839,672 L 839,671 L 840,670 L 840,669 L 841,668 L 841,667 L 842,666 L 842,663 L 843,662 L 843,659 L 844,658 L 844,251 L 843,250 L 843,247 L 842,246 L 842,243 L 841,242 L 841,241 L 840,240 L 840,239 L 839,238 L 839,237 L 838,236 L 838,235 L 836,233 L 836,232 L 834,230 L 834,229 L 828,223 L 827,223 L 824,220 L 823,220 L 822,219 L 821,219 L 820,218 L 819,218 L 818,217 L 817,217 L 816,216 L 814,216 L 813,215 L 811,215 L 810,214 L 806,214 L 805,213 Z" fill="black" /></svg>