<?xml version="1.0" encoding="utf-8" ?>
<svg baseProfile="full" height="1024px" version="1.1" width="1024px" xmlns="http://www.w3.org/2000/svg" xmlns:ev="http://www.w3.org/2001/xml-events" xmlns:xlink="http://www.w3.org/1999/xlink"><defs /><path d="M 292,413 L 291,414 L 289,414 L 288,415 L 287,415 L 286,416 L 285,416 L 280,421 L 280,422 L 279,423 L 279,424 L 278,425 L 278,426 L 277,427 L 277,444 L 278,445 L 278,446 L 280,448 L 280,449 L 284,453 L 285,453 L 287,455 L 288,455 L 289,456 L 292,456 L 293,457 L 301,457 L 302,458 L 302,466 L 301,467 L 302,468 L 301,469 L 301,473 L 302,474 L 302,496 L 303,497 L 303,504 L 304,505 L 304,512 L 305,513 L 305,517 L 306,518 L 306,522 L 307,523 L 307,527 L 308,528 L 308,531 L 309,532 L 309,535 L 310,536 L 310,538 L 311,539 L 311,542 L 312,543 L 312,545 L 313,546 L 313,548 L 314,549 L 314,550 L 315,551 L 315,553 L 316,554 L 316,556 L 317,557 L 317,558 L 318,559 L 318,561 L 319,562 L 319,563 L 320,564 L 320,565 L 321,566 L 321,568 L 322,569 L 322,570 L 323,571 L 323,572 L 324,573 L 324,574 L 325,575 L 325,576 L 326,577 L 326,578 L 327,579 L 327,580 L 329,582 L 329,583 L 330,584 L 330,585 L 331,586 L 331,587 L 333,589 L 333,590 L 335,592 L 335,593 L 336,594 L 336,595 L 338,597 L 338,598 L 340,600 L 340,601 L 343,604 L 343,605 L 346,608 L 346,609 L 350,613 L 350,614 L 355,619 L 355,620 L 372,637 L 373,637 L 379,643 L 380,643 L 383,646 L 384,646 L 387,649 L 388,649 L 391,652 L 392,652 L 395,655 L 396,655 L 397,656 L 398,656 L 400,658 L 401,658 L 403,660 L 404,660 L 405,661 L 406,661 L 408,663 L 409,663 L 410,664 L 411,664 L 412,665 L 413,665 L 414,666 L 415,666 L 416,667 L 417,667 L 418,668 L 419,668 L 420,669 L 421,669 L 422,670 L 423,670 L 424,671 L 425,671 L 426,672 L 427,672 L 428,673 L 429,673 L 430,674 L 432,674 L 433,675 L 434,675 L 435,676 L 436,676 L 437,677 L 439,677 L 440,678 L 442,678 L 443,679 L 445,679 L 446,680 L 448,680 L 449,681 L 451,681 L 452,682 L 454,682 L 455,683 L 458,683 L 459,684 L 462,684 L 463,685 L 466,685 L 467,686 L 471,686 L 472,687 L 477,687 L 478,688 L 483,688 L 484,689 L 490,689 L 491,690 L 491,792 L 490,793 L 392,793 L 391,794 L 389,794 L 388,795 L 386,795 L 384,797 L 383,797 L 380,800 L 380,801 L 378,803 L 378,805 L 377,806 L 377,808 L 376,809 L 376,820 L 377,821 L 377,823 L 378,824 L 378,825 L 379,826 L 379,827 L 385,833 L 386,833 L 387,834 L 388,834 L 389,835 L 394,835 L 395,836 L 631,836 L 632,835 L 636,835 L 637,834 L 638,834 L 639,833 L 640,833 L 641,832 L 642,832 L 646,828 L 646,827 L 647,826 L 647,825 L 648,824 L 648,822 L 649,821 L 649,808 L 648,807 L 648,805 L 647,804 L 647,803 L 646,802 L 646,801 L 642,797 L 641,797 L 639,795 L 637,795 L 636,794 L 634,794 L 633,793 L 533,793 L 532,792 L 532,690 L 533,689 L 538,689 L 539,688 L 546,688 L 547,687 L 551,687 L 552,686 L 557,686 L 558,685 L 561,685 L 562,684 L 565,684 L 566,683 L 568,683 L 569,682 L 572,682 L 573,681 L 575,681 L 576,680 L 578,680 L 579,679 L 581,679 L 582,678 L 583,678 L 584,677 L 586,677 L 587,676 L 588,676 L 589,675 L 591,675 L 592,674 L 593,674 L 594,673 L 595,673 L 596,672 L 597,672 L 598,671 L 599,671 L 600,670 L 601,670 L 602,669 L 603,669 L 604,668 L 605,668 L 606,667 L 607,667 L 608,666 L 609,666 L 610,665 L 611,665 L 612,664 L 613,664 L 615,662 L 616,662 L 617,661 L 618,661 L 620,659 L 621,659 L 623,657 L 624,657 L 626,655 L 627,655 L 629,653 L 630,653 L 632,651 L 633,651 L 636,648 L 637,648 L 641,644 L 642,644 L 647,639 L 648,639 L 669,618 L 669,617 L 674,612 L 674,611 L 678,607 L 678,606 L 681,603 L 681,602 L 683,600 L 683,599 L 685,597 L 685,596 L 687,594 L 687,593 L 689,591 L 689,590 L 690,589 L 690,588 L 692,586 L 692,585 L 693,584 L 693,583 L 695,581 L 695,580 L 696,579 L 696,578 L 697,577 L 697,576 L 698,575 L 698,574 L 699,573 L 699,572 L 700,571 L 700,570 L 701,569 L 701,568 L 702,567 L 702,565 L 703,564 L 703,563 L 704,562 L 704,561 L 705,560 L 705,558 L 706,557 L 706,556 L 707,555 L 707,553 L 708,552 L 708,550 L 709,549 L 709,547 L 710,546 L 710,544 L 711,543 L 711,541 L 712,540 L 712,538 L 713,537 L 713,534 L 714,533 L 714,530 L 715,529 L 715,526 L 716,525 L 716,521 L 717,520 L 717,516 L 718,515 L 718,510 L 719,509 L 719,503 L 720,502 L 720,491 L 721,490 L 721,458 L 722,457 L 731,457 L 732,456 L 734,456 L 735,455 L 737,455 L 739,453 L 740,453 L 744,449 L 744,448 L 746,446 L 746,444 L 747,443 L 747,426 L 746,425 L 746,424 L 745,423 L 745,422 L 742,419 L 742,418 L 741,418 L 738,415 L 737,415 L 736,414 L 734,414 L 733,413 L 688,413 L 687,414 L 686,414 L 684,416 L 683,416 L 683,417 L 681,419 L 681,420 L 680,421 L 680,487 L 679,488 L 679,499 L 678,500 L 678,507 L 677,508 L 677,513 L 676,514 L 676,518 L 675,519 L 675,522 L 674,523 L 674,525 L 673,526 L 673,529 L 672,530 L 672,532 L 671,533 L 671,535 L 670,536 L 670,538 L 669,539 L 669,541 L 668,542 L 668,543 L 667,544 L 667,545 L 666,546 L 666,548 L 665,549 L 665,550 L 664,551 L 664,552 L 663,553 L 663,554 L 662,555 L 662,556 L 661,557 L 661,558 L 660,559 L 660,560 L 659,561 L 659,562 L 658,563 L 658,564 L 657,565 L 657,566 L 655,568 L 655,569 L 653,571 L 653,572 L 652,573 L 652,574 L 650,576 L 650,577 L 647,580 L 647,581 L 644,584 L 644,585 L 640,589 L 640,590 L 618,612 L 617,612 L 614,615 L 613,615 L 610,618 L 609,618 L 606,621 L 605,621 L 603,623 L 602,623 L 601,624 L 600,624 L 598,626 L 597,626 L 595,628 L 594,628 L 593,629 L 592,629 L 591,630 L 590,630 L 589,631 L 588,631 L 587,632 L 586,632 L 585,633 L 584,633 L 583,634 L 582,634 L 581,635 L 580,635 L 579,636 L 577,636 L 576,637 L 575,637 L 574,638 L 572,638 L 571,639 L 570,639 L 569,640 L 567,640 L 566,641 L 564,641 L 563,642 L 560,642 L 559,643 L 557,643 L 556,644 L 554,644 L 553,645 L 549,645 L 548,646 L 545,646 L 544,647 L 538,647 L 537,648 L 531,648 L 530,649 L 516,649 L 515,650 L 512,650 L 511,649 L 494,649 L 493,648 L 487,648 L 486,647 L 481,647 L 480,646 L 476,646 L 475,645 L 472,645 L 471,644 L 468,644 L 467,643 L 464,643 L 463,642 L 462,642 L 461,641 L 458,641 L 457,640 L 455,640 L 454,639 L 453,639 L 452,638 L 450,638 L 449,637 L 448,637 L 447,636 L 445,636 L 444,635 L 443,635 L 442,634 L 441,634 L 440,633 L 439,633 L 438,632 L 437,632 L 436,631 L 435,631 L 434,630 L 433,630 L 432,629 L 431,629 L 430,628 L 429,628 L 428,627 L 427,627 L 425,625 L 424,625 L 423,624 L 422,624 L 420,622 L 419,622 L 417,620 L 416,620 L 413,617 L 412,617 L 409,614 L 408,614 L 405,611 L 404,611 L 384,591 L 384,590 L 379,585 L 379,584 L 376,581 L 376,580 L 374,578 L 374,577 L 371,574 L 371,573 L 370,572 L 370,571 L 368,569 L 368,568 L 366,566 L 366,565 L 365,564 L 365,563 L 364,562 L 364,561 L 363,560 L 363,559 L 362,558 L 362,557 L 361,556 L 361,555 L 360,554 L 360,553 L 359,552 L 359,551 L 358,550 L 358,549 L 357,548 L 357,546 L 356,545 L 356,544 L 355,543 L 355,542 L 354,541 L 354,539 L 353,538 L 353,537 L 352,536 L 352,533 L 351,532 L 351,531 L 350,530 L 350,527 L 349,526 L 349,523 L 348,522 L 348,519 L 347,518 L 347,514 L 346,513 L 346,508 L 345,507 L 345,500 L 344,499 L 344,486 L 343,485 L 343,420 L 342,419 L 342,418 L 338,414 L 336,414 L 335,413 Z" fill="black" /><path d="M 497,179 L 496,180 L 490,180 L 489,181 L 484,181 L 483,182 L 480,182 L 479,183 L 476,183 L 475,184 L 472,184 L 471,185 L 469,185 L 468,186 L 466,186 L 465,187 L 463,187 L 462,188 L 461,188 L 460,189 L 458,189 L 457,190 L 456,190 L 455,191 L 454,191 L 453,192 L 452,192 L 451,193 L 450,193 L 449,194 L 448,194 L 447,195 L 446,195 L 445,196 L 444,196 L 443,197 L 442,197 L 441,198 L 440,198 L 438,200 L 437,200 L 435,202 L 434,202 L 432,204 L 431,204 L 428,207 L 427,207 L 422,212 L 421,212 L 410,223 L 410,224 L 404,230 L 404,231 L 401,234 L 401,235 L 399,237 L 399,238 L 397,240 L 397,241 L 396,242 L 396,243 L 394,245 L 394,246 L 393,247 L 393,248 L 391,250 L 391,251 L 390,252 L 390,254 L 389,255 L 389,256 L 388,257 L 388,258 L 387,259 L 387,260 L 386,261 L 386,262 L 385,263 L 385,265 L 384,266 L 384,268 L 383,269 L 383,271 L 382,272 L 382,274 L 381,275 L 381,277 L 380,278 L 380,281 L 379,282 L 379,286 L 378,287 L 378,292 L 377,293 L 377,301 L 376,302 L 376,490 L 377,491 L 377,500 L 378,501 L 378,506 L 379,507 L 379,511 L 380,512 L 380,516 L 381,517 L 381,519 L 382,520 L 382,522 L 383,523 L 383,525 L 384,526 L 384,528 L 385,529 L 385,531 L 386,532 L 386,533 L 387,534 L 387,535 L 388,536 L 388,537 L 389,538 L 389,539 L 390,540 L 390,542 L 391,543 L 391,544 L 393,546 L 393,547 L 394,548 L 394,549 L 395,550 L 395,551 L 397,553 L 397,554 L 399,556 L 399,557 L 401,559 L 401,560 L 404,563 L 404,564 L 409,569 L 409,570 L 423,584 L 424,584 L 428,588 L 429,588 L 432,591 L 433,591 L 435,593 L 436,593 L 438,595 L 439,595 L 441,597 L 442,597 L 443,598 L 444,598 L 446,600 L 447,600 L 448,601 L 449,601 L 450,602 L 451,602 L 452,603 L 453,603 L 454,604 L 455,604 L 456,605 L 457,605 L 458,606 L 460,606 L 461,607 L 462,607 L 463,608 L 465,608 L 466,609 L 468,609 L 469,610 L 471,610 L 472,611 L 474,611 L 475,612 L 478,612 L 479,613 L 482,613 L 483,614 L 486,614 L 487,615 L 492,615 L 493,616 L 501,616 L 502,617 L 523,617 L 524,616 L 531,616 L 532,615 L 538,615 L 539,614 L 542,614 L 543,613 L 546,613 L 547,612 L 549,612 L 550,611 L 553,611 L 554,610 L 556,610 L 557,609 L 559,609 L 560,608 L 561,608 L 562,607 L 564,607 L 565,606 L 566,606 L 567,605 L 568,605 L 569,604 L 570,604 L 571,603 L 572,603 L 573,602 L 574,602 L 575,601 L 576,601 L 577,600 L 578,600 L 580,598 L 581,598 L 582,597 L 583,597 L 585,595 L 586,595 L 588,593 L 589,593 L 592,590 L 593,590 L 595,588 L 596,588 L 616,568 L 616,567 L 619,564 L 619,563 L 622,560 L 622,559 L 624,557 L 624,556 L 626,554 L 626,553 L 627,552 L 627,551 L 629,549 L 629,548 L 630,547 L 630,546 L 631,545 L 631,544 L 632,543 L 632,542 L 633,541 L 633,540 L 634,539 L 634,538 L 635,537 L 635,536 L 636,535 L 636,533 L 637,532 L 637,531 L 638,530 L 638,528 L 639,527 L 639,526 L 640,525 L 640,523 L 641,522 L 641,519 L 642,518 L 642,516 L 643,515 L 643,512 L 644,511 L 644,507 L 645,506 L 645,501 L 646,500 L 646,491 L 647,490 L 647,304 L 646,303 L 646,294 L 645,293 L 645,289 L 644,288 L 644,284 L 643,283 L 643,280 L 642,279 L 642,276 L 641,275 L 641,273 L 640,272 L 640,270 L 639,269 L 639,267 L 638,266 L 638,264 L 637,263 L 637,262 L 636,261 L 636,259 L 635,258 L 635,257 L 634,256 L 634,255 L 633,254 L 633,253 L 632,252 L 632,251 L 631,250 L 631,249 L 630,248 L 630,247 L 629,246 L 629,245 L 627,243 L 627,242 L 626,241 L 626,240 L 624,238 L 624,237 L 621,234 L 621,233 L 618,230 L 618,229 L 613,224 L 613,223 L 602,212 L 601,212 L 596,207 L 595,207 L 592,204 L 591,204 L 589,202 L 588,202 L 586,200 L 585,200 L 583,198 L 582,198 L 581,197 L 580,197 L 579,196 L 578,196 L 576,194 L 575,194 L 574,193 L 573,193 L 572,192 L 571,192 L 570,191 L 568,191 L 567,190 L 566,190 L 565,189 L 564,189 L 563,188 L 561,188 L 560,187 L 558,187 L 557,186 L 555,186 L 554,185 L 552,185 L 551,184 L 549,184 L 548,183 L 545,183 L 544,182 L 540,182 L 539,181 L 534,181 L 533,180 L 526,180 L 525,179 Z" fill="black" /></svg>